<svg width="34" height="35" viewBox="0 0 34 35" fill="none" xmlns="http://www.w3.org/2000/svg">
<g clip-path="url(#clip0_1_4889)">
<path d="M26.8465 17.0013L28.9625 19.1445C29.9487 20.1433 31.6402 19.4355 31.6402 18.02V10.7438C31.6402 9.86403 30.9414 9.15625 30.0728 9.15625H22.8822C21.4846 9.15625 20.7858 10.8695 21.772 11.8683L23.888 14.0115L20.1458 17.8017L15.3521 12.9465C14.5358 12.1196 13.21 12.1196 12.3936 12.9465L7.16891 18.2383C6.35255 19.0651 6.35255 20.4079 7.16891 21.2347C7.98527 22.0616 9.31105 22.0616 10.1274 21.2347L13.8761 17.4445L18.6698 22.2997C19.4862 23.1266 20.812 23.1266 21.6283 22.2997L26.853 17.0079L26.8465 17.0013Z" fill="#2E2E2E"/>
<path opacity="0.4" d="M2.38285 2.80664C3.53882 2.80664 4.47274 3.75255 4.47274 4.92335V27.1488C4.47274 27.7309 4.94297 28.2072 5.51768 28.2072H31.6413C32.7972 28.2072 33.7311 29.1531 33.7311 30.3239C33.7311 31.4947 32.7972 32.4406 31.6413 32.4406H5.51768C2.63103 32.4406 0.292969 30.0726 0.292969 27.1488V4.92335C0.292969 3.75255 1.22689 2.80664 2.38285 2.80664Z" fill="black"/>
</g>
<defs>
<clipPath id="clip0_1_4889">
<rect width="33.4382" height="33.8674" fill="white" transform="translate(0.292969 0.689453)"/>
</clipPath>
</defs>
</svg>
