<svg width="36" height="37" viewBox="0 0 36 37" fill="none" xmlns="http://www.w3.org/2000/svg">
<path d="M4.5 3.07143C4.5 1.64911 3.49453 0.5 2.25 0.5C1.00547 0.5 0 1.64911 0 3.07143V30.0714C0 33.6232 2.51719 36.5 5.625 36.5H33.75C34.9945 36.5 36 35.3509 36 33.9286C36 32.5062 34.9945 31.3571 33.75 31.3571H5.625C5.00625 31.3571 4.5 30.7786 4.5 30.0714V3.07143ZM33.0891 10.0304C33.968 9.02589 33.968 7.39464 33.0891 6.39018C32.2102 5.38571 30.7828 5.38571 29.9039 6.39018L22.5 14.8598L18.4641 10.2473C17.5852 9.24286 16.1578 9.24286 15.2789 10.2473L7.40391 19.2473C6.525 20.2518 6.525 21.883 7.40391 22.8875C8.28281 23.892 9.71016 23.892 10.5891 22.8875L16.875 15.7116L20.9109 20.3241C21.7898 21.3286 23.2172 21.3286 24.0961 20.3241L33.0961 10.0384L33.0891 10.0304Z" fill="#00A7FF"/>
</svg>
