<svg width="32" height="37" viewBox="0 0 32 37" fill="none" xmlns="http://www.w3.org/2000/svg">
<path d="M16 0.5C16.6286 0.5 17.1429 1.00625 17.1429 1.625V5H21.7143C24.2357 5 26.2857 7.01797 26.2857 9.5V18.5C26.2857 20.982 24.2357 23 21.7143 23H10.2857C7.76429 23 5.71429 20.982 5.71429 18.5V9.5C5.71429 7.01797 7.76429 5 10.2857 5H14.8571V1.625C14.8571 1.00625 15.3714 0.5 16 0.5ZM1.14286 10.625C1.14286 10.0063 1.65714 9.5 2.28571 9.5C2.91429 9.5 3.42857 10.0063 3.42857 10.625V17.375C3.42857 17.9937 2.91429 18.5 2.28571 18.5C1.65714 18.5 1.14286 17.9937 1.14286 17.375V10.625ZM29.7143 9.5C30.3429 9.5 30.8571 10.0063 30.8571 10.625V17.375C30.8571 17.9937 30.3429 18.5 29.7143 18.5C29.0857 18.5 28.5714 17.9937 28.5714 17.375V10.625C28.5714 10.0063 29.0857 9.5 29.7143 9.5ZM11.4286 14C12.0348 14 12.6162 13.7629 13.0448 13.341C13.4735 12.919 13.7143 12.3467 13.7143 11.75C13.7143 11.1533 13.4735 10.581 13.0448 10.159C12.6162 9.73705 12.0348 9.5 11.4286 9.5C10.8224 9.5 10.241 9.73705 9.81233 10.159C9.38367 10.581 9.14286 11.1533 9.14286 11.75C9.14286 12.3467 9.38367 12.919 9.81233 13.341C10.241 13.7629 10.8224 14 11.4286 14ZM22.8571 11.75C22.8571 11.1533 22.6163 10.581 22.1877 10.159C21.759 9.73705 21.1776 9.5 20.5714 9.5C19.9652 9.5 19.3838 9.73705 18.9552 10.159C18.5265 10.581 18.2857 11.1533 18.2857 11.75C18.2857 12.3467 18.5265 12.919 18.9552 13.341C19.3838 13.7629 19.9652 14 20.5714 14C21.1776 14 21.759 13.7629 22.1877 13.341C22.6163 12.919 22.8571 12.3467 22.8571 11.75ZM11.4286 17.375C11.1255 17.375 10.8348 17.4935 10.6205 17.7045C10.4061 17.9155 10.2857 18.2016 10.2857 18.5C10.2857 18.7984 10.4061 19.0845 10.6205 19.2955C10.8348 19.5065 11.1255 19.625 11.4286 19.625C11.7317 19.625 12.0224 19.5065 12.2367 19.2955C12.451 19.0845 12.5714 18.7984 12.5714 18.5C12.5714 18.2016 12.451 17.9155 12.2367 17.7045C12.0224 17.4935 11.7317 17.375 11.4286 17.375ZM14.8571 18.5C14.8571 18.7984 14.9776 19.0845 15.1919 19.2955C15.4062 19.5065 15.6969 19.625 16 19.625C16.3031 19.625 16.5938 19.5065 16.8081 19.2955C17.0224 19.0845 17.1429 18.7984 17.1429 18.5C17.1429 18.2016 17.0224 17.9155 16.8081 17.7045C16.5938 17.4935 16.3031 17.375 16 17.375C15.6969 17.375 15.4062 17.4935 15.1919 17.7045C14.9776 17.9155 14.8571 18.2016 14.8571 18.5ZM20.5714 17.375C20.2683 17.375 19.9776 17.4935 19.7633 17.7045C19.549 17.9155 19.4286 18.2016 19.4286 18.5C19.4286 18.7984 19.549 19.0845 19.7633 19.2955C19.9776 19.5065 20.2683 19.625 20.5714 19.625C20.8745 19.625 21.1652 19.5065 21.3796 19.2955C21.5939 19.0845 21.7143 18.7984 21.7143 18.5C21.7143 18.2016 21.5939 17.9155 21.3796 17.7045C21.1652 17.4935 20.8745 17.375 20.5714 17.375ZM6.85714 25.25H25.1429C28.9286 25.25 32 28.2734 32 32V34.25C32 35.4945 30.9786 36.5 29.7143 36.5H25.1429V32C25.1429 30.7555 24.1214 29.75 22.8571 29.75H9.14286C7.87857 29.75 6.85714 30.7555 6.85714 32V36.5H2.28571C1.02143 36.5 0 35.4945 0 34.25V32C0 28.2734 3.07143 25.25 6.85714 25.25ZM12.5714 33.125V36.5H10.2857V33.125C10.2857 32.5062 10.8 32 11.4286 32C12.0571 32 12.5714 32.5062 12.5714 33.125ZM16 32C16.6286 32 17.1429 32.5062 17.1429 33.125V36.5H14.8571V33.125C14.8571 32.5062 15.3714 32 16 32ZM21.7143 33.125V36.5H19.4286V33.125C19.4286 32.5062 19.9429 32 20.5714 32C21.2 32 21.7143 32.5062 21.7143 33.125Z" fill="#00A7FF"/>
</svg>
