<svg width="34" height="37" viewBox="0 0 34 37" fill="none" xmlns="http://www.w3.org/2000/svg">
<path d="M33.209 13.9464C33.6914 13.5104 33.8802 12.8282 33.6565 12.2164C33.3488 11.3795 32.9782 10.5778 32.5517 9.80416L32.223 9.23452C31.7616 8.46093 31.2441 7.72954 30.6778 7.04034C30.2652 6.53399 29.58 6.36521 28.9646 6.56212L26.1817 7.44823C25.4825 7.67328 24.7273 7.52559 24.105 7.12473C23.7624 6.90672 23.4128 6.69574 23.0492 6.51289C22.3989 6.17533 21.8955 5.58459 21.7346 4.86726L21.1123 2.00498C20.9725 1.36501 20.483 0.858664 19.8397 0.753174C18.8818 0.584391 17.8889 0.5 16.875 0.5C15.8611 0.5 14.8682 0.584391 13.9033 0.746142C13.26 0.851631 12.7705 1.35798 12.6307 1.99795L12.0084 4.86023C11.8545 5.57755 11.3441 6.16829 10.6938 6.50586C10.3302 6.69574 9.98062 6.89969 9.63799 7.1177C9.02267 7.51856 8.26052 7.65921 7.56129 7.4412L4.78536 6.55509C4.17004 6.35818 3.48479 6.53399 3.07225 7.03331C2.50587 7.7225 1.98845 8.4539 1.52696 9.22749L1.19832 9.79713C0.77179 10.5707 0.4012 11.3724 0.0935397 12.2093C-0.130213 12.8212 0.0585782 13.5033 0.541045 13.9393L2.70166 15.9155C3.24006 16.4148 3.49878 17.1462 3.46382 17.8776C3.45682 18.0816 3.44983 18.2855 3.44983 18.4965C3.44983 18.7075 3.45682 18.9114 3.46382 19.1154C3.49878 19.8538 3.24706 20.5852 2.70166 21.0775L0.541045 23.0607C0.0585782 23.4967 -0.130213 24.1788 0.0935397 24.7907C0.4012 25.6276 0.77179 26.4293 1.19832 27.2029L1.52696 27.7725C1.98845 28.5461 2.50587 29.2775 3.07225 29.9667C3.48479 30.473 4.17004 30.6418 4.78536 30.4449L7.56129 29.5588C8.26052 29.3338 9.01568 29.4814 9.63799 29.8823C9.98062 30.1003 10.3302 30.3113 10.6938 30.4941C11.3441 30.8317 11.8476 31.4224 12.0084 32.1398L12.6307 35.0021C12.7705 35.642 13.26 36.1484 13.9033 36.2539C14.8682 36.4156 15.8611 36.5 16.875 36.5C17.8889 36.5 18.8818 36.4156 19.8467 36.2539C20.49 36.1484 20.9795 35.642 21.1193 35.0021L21.7416 32.1398C21.8955 31.4224 22.3989 30.8317 23.0562 30.4941C23.4198 30.3043 23.7694 30.1003 24.112 29.8823C24.7273 29.4814 25.4895 29.3408 26.1887 29.5588L28.9646 30.4449C29.58 30.6418 30.2652 30.466 30.6778 29.9667C31.2441 29.2775 31.7616 28.5461 32.223 27.7725L32.5517 27.2029C32.9782 26.4293 33.3418 25.6276 33.6565 24.7907C33.8802 24.1788 33.6914 23.4967 33.209 23.0607L31.0483 21.0845C30.5099 20.5852 30.2512 19.8538 30.2862 19.1224C30.2932 18.9184 30.3002 18.7145 30.3002 18.5035C30.3002 18.2925 30.2932 18.0886 30.2862 17.8846C30.2512 17.1462 30.5029 16.4148 31.0483 15.9225L33.209 13.9464ZM16.875 11.7522C18.6553 11.7522 20.3627 12.4635 21.6215 13.7296C22.8804 14.9957 23.5876 16.713 23.5876 18.5035C23.5876 20.2941 22.8804 22.0113 21.6215 23.2774C20.3627 24.5435 18.6553 25.2548 16.875 25.2548C15.0947 25.2548 13.3873 24.5435 12.1285 23.2774C10.8696 22.0113 10.1624 20.2941 10.1624 18.5035C10.1624 16.713 10.8696 14.9957 12.1285 13.7296C13.3873 12.4635 15.0947 11.7522 16.875 11.7522Z" fill="#00A7FF"/>
</svg>
