<svg width="36" height="36" viewBox="0 0 36 36" fill="none" xmlns="http://www.w3.org/2000/svg">
<path d="M31.5 18C31.5 16.2272 31.1508 14.4717 30.4724 12.8338C29.7939 11.1959 28.7995 9.70765 27.5459 8.45406C26.2924 7.20047 24.8041 6.20606 23.1662 5.52763C21.5283 4.84919 19.7728 4.5 18 4.5C16.2272 4.5 14.4717 4.84919 12.8338 5.52763C11.1959 6.20606 9.70765 7.20047 8.45406 8.45406C7.20047 9.70765 6.20606 11.1959 5.52763 12.8338C4.84919 14.4717 4.5 16.2272 4.5 18C4.5 19.7728 4.84919 21.5283 5.52763 23.1662C6.20606 24.8041 7.20047 26.2924 8.45406 27.5459C9.70765 28.7995 11.1959 29.7939 12.8338 30.4724C14.4717 31.1508 16.2272 31.5 18 31.5C19.7728 31.5 21.5283 31.1508 23.1662 30.4724C24.8041 29.7939 26.2924 28.7995 27.5459 27.5459C28.7995 26.2924 29.7939 24.8041 30.4724 23.1662C31.1508 21.5283 31.5 19.7728 31.5 18ZM0 18C0 13.2261 1.89642 8.64773 5.27208 5.27208C8.64773 1.89642 13.2261 0 18 0C22.7739 0 27.3523 1.89642 30.7279 5.27208C34.1036 8.64773 36 13.2261 36 18C36 22.7739 34.1036 27.3523 30.7279 30.7279C27.3523 34.1036 22.7739 36 18 36C13.2261 36 8.64773 34.1036 5.27208 30.7279C1.89642 27.3523 0 22.7739 0 18ZM18 23.625C19.4918 23.625 20.9226 23.0324 21.9775 21.9775C23.0324 20.9226 23.625 19.4918 23.625 18C23.625 16.5082 23.0324 15.0774 21.9775 14.0225C20.9226 12.9676 19.4918 12.375 18 12.375C16.5082 12.375 15.0774 12.9676 14.0225 14.0225C12.9676 15.0774 12.375 16.5082 12.375 18C12.375 19.4918 12.9676 20.9226 14.0225 21.9775C15.0774 23.0324 16.5082 23.625 18 23.625ZM18 7.875C20.6853 7.875 23.2607 8.94174 25.1595 10.8405C27.0583 12.7393 28.125 15.3147 28.125 18C28.125 20.6853 27.0583 23.2607 25.1595 25.1595C23.2607 27.0583 20.6853 28.125 18 28.125C15.3147 28.125 12.7393 27.0583 10.8405 25.1595C8.94174 23.2607 7.875 20.6853 7.875 18C7.875 15.3147 8.94174 12.7393 10.8405 10.8405C12.7393 8.94174 15.3147 7.875 18 7.875ZM15.75 18C15.75 17.4033 15.9871 16.831 16.409 16.409C16.831 15.9871 17.4033 15.75 18 15.75C18.5967 15.75 19.169 15.9871 19.591 16.409C20.0129 16.831 20.25 17.4033 20.25 18C20.25 18.5967 20.0129 19.169 19.591 19.591C19.169 20.0129 18.5967 20.25 18 20.25C17.4033 20.25 16.831 20.0129 16.409 19.591C15.9871 19.169 15.75 18.5967 15.75 18Z" fill="#00A7FF"/>
</svg>
