<svg width="40" height="41" viewBox="0 0 40 41" fill="none" xmlns="http://www.w3.org/2000/svg">
<rect y="0.5" width="40" height="40" rx="20" fill="#082A66"/>
<g clip-path="url(#clip0_1_286)">
<path d="M16.875 11.75C17.2188 11.75 17.5 12.0312 17.5 12.375C17.5 12.7188 17.2188 13 16.875 13H12.5V17.375C12.5 17.7188 12.2188 18 11.875 18C11.5312 18 11.25 17.7188 11.25 17.375V12.375C11.25 12.0312 11.5312 11.75 11.875 11.75H16.875ZM11.25 23.625C11.25 23.2812 11.5312 23 11.875 23C12.2188 23 12.5 23.2812 12.5 23.625V28H16.875C17.2188 28 17.5 28.2812 17.5 28.625C17.5 28.9688 17.2188 29.25 16.875 29.25H11.875C11.5312 29.25 11.25 28.9688 11.25 28.625V23.625ZM28.125 11.75C28.4688 11.75 28.75 12.0312 28.75 12.375V17.375C28.75 17.7188 28.4688 18 28.125 18C27.7812 18 27.5 17.7188 27.5 17.375V13H23.125C22.7812 13 22.5 12.7188 22.5 12.375C22.5 12.0312 22.7812 11.75 23.125 11.75H28.125ZM27.5 23.625C27.5 23.2812 27.7812 23 28.125 23C28.4688 23 28.75 23.2812 28.75 23.625V28.625C28.75 28.9688 28.4688 29.25 28.125 29.25H23.125C22.7812 29.25 22.5 28.9688 22.5 28.625C22.5 28.2812 22.7812 28 23.125 28H27.5V23.625Z" fill="white"/>
</g>
<defs>
<clipPath id="clip0_1_286">
<rect width="17.5" height="20" fill="white" transform="translate(11.25 10.5)"/>
</clipPath>
</defs>
</svg>
