<svg width="40" height="40" viewBox="0 0 40 40" fill="none" xmlns="http://www.w3.org/2000/svg">
<rect width="40" height="40" rx="20" fill="#082A66"/>
<path d="M12.7109 18.2266C13.5078 14.9414 16.4688 12.5 20 12.5C22.7773 12.5 25.1992 14.0078 26.4961 16.25H24.375C24.0312 16.25 23.75 16.5312 23.75 16.875C23.75 17.2188 24.0312 17.5 24.375 17.5H27.5273H28.125C28.4688 17.5 28.75 17.2188 28.75 16.875V13.125C28.75 12.7812 28.4688 12.5 28.125 12.5C27.7812 12.5 27.5 12.7812 27.5 13.125V15.4922C25.9687 12.9492 23.1836 11.25 20 11.25C15.8438 11.25 12.3633 14.1484 11.4727 18.0312C11.3867 18.4063 11.6836 18.75 12.0703 18.75C12.3789 18.75 12.6406 18.5273 12.7148 18.2266H12.7109ZM27.2891 21.7773C26.4922 25.0586 23.5312 27.5 20 27.5C17.2227 27.5 14.8008 25.9922 13.5039 23.75H15.6328C15.9766 23.75 16.2578 23.4688 16.2578 23.125C16.2578 22.7812 15.9766 22.5 15.6328 22.5H12.4727H11.8828C11.5391 22.5 11.2578 22.7812 11.2578 23.125V26.875C11.2578 27.2188 11.5391 27.5 11.8828 27.5C12.2266 27.5 12.5078 27.2188 12.5078 26.875V24.5234C14.0391 27.0547 16.8242 28.75 20 28.75C24.1562 28.75 27.6367 25.8516 28.5273 21.9688C28.6133 21.5938 28.3164 21.25 27.9297 21.25C27.6211 21.25 27.3594 21.4727 27.2852 21.7734L27.2891 21.7773Z" fill="white"/>
</svg>
