<svg width="40" height="41" viewBox="0 0 40 41" fill="none" xmlns="http://www.w3.org/2000/svg">
<rect y="0.5" width="40" height="40" rx="20" fill="#082A66"/>
<path d="M20 9.5625C22.9008 9.5625 25.6828 10.7148 27.734 12.766C29.7852 14.8172 30.9375 17.5992 30.9375 20.5C30.9375 23.4008 29.7852 26.1828 27.734 28.234C25.6828 30.2852 22.9008 31.4375 20 31.4375C17.0992 31.4375 14.3172 30.2852 12.266 28.234C10.2148 26.1828 9.0625 23.4008 9.0625 20.5C9.0625 17.5992 10.2148 14.8172 12.266 12.766C14.3172 10.7148 17.0992 9.5625 20 9.5625ZM20 33C23.3152 33 26.4946 31.683 28.8388 29.3388C31.183 26.9946 32.5 23.8152 32.5 20.5C32.5 17.1848 31.183 14.0054 28.8388 11.6612C26.4946 9.31696 23.3152 8 20 8C16.6848 8 13.5054 9.31696 11.1612 11.6612C8.81696 14.0054 7.5 17.1848 7.5 20.5C7.5 23.8152 8.81696 26.9946 11.1612 29.3388C13.5054 31.683 16.6848 33 20 33ZM17.6562 25.1875C17.2266 25.1875 16.875 25.5391 16.875 25.9688C16.875 26.3984 17.2266 26.75 17.6562 26.75H22.3438C22.7734 26.75 23.125 26.3984 23.125 25.9688C23.125 25.5391 22.7734 25.1875 22.3438 25.1875H20.7812V19.7188C20.7812 19.2891 20.4297 18.9375 20 18.9375H18.0469C17.6172 18.9375 17.2656 19.2891 17.2656 19.7188C17.2656 20.1484 17.6172 20.5 18.0469 20.5H19.2188V25.1875H17.6562ZM20 16.9844C20.3108 16.9844 20.6089 16.8609 20.8286 16.6411C21.0484 16.4214 21.1719 16.1233 21.1719 15.8125C21.1719 15.5017 21.0484 15.2036 20.8286 14.9839C20.6089 14.7641 20.3108 14.6406 20 14.6406C19.6892 14.6406 19.3911 14.7641 19.1714 14.9839C18.9516 15.2036 18.8281 15.5017 18.8281 15.8125C18.8281 16.1233 18.9516 16.4214 19.1714 16.6411C19.3911 16.8609 19.6892 16.9844 20 16.9844Z" fill="white"/>
</svg>
