<svg width="72" height="72" viewBox="0 0 72 72" fill="none" xmlns="http://www.w3.org/2000/svg">
<rect width="72" height="72" rx="24" fill="#002799" fill-opacity="0.15"/>
<rect x="18" y="18" width="36" height="36" rx="10" fill="#082A66"/>
<g opacity="0.9">
<g clip-path="url(#clip0_1_3893)">
<path d="M29.8502 26.7662L30.381 25.4404C30.4068 25.3754 30.4702 25.332 30.541 25.332C30.6118 25.332 30.6752 25.3754 30.701 25.4404L31.2318 26.7662L32.5577 27.297C32.6227 27.3229 32.666 27.3862 32.666 27.457C32.666 27.5279 32.6227 27.5912 32.5577 27.617L31.2318 28.1479L30.701 29.4737C30.6752 29.5395 30.6118 29.582 30.541 29.582C30.4702 29.582 30.4068 29.5395 30.381 29.4737L29.8502 28.1479L28.5243 27.617C28.4585 27.5912 28.416 27.5279 28.416 27.457C28.416 27.3862 28.4585 27.3229 28.5243 27.297L29.8502 26.7662Z" fill="white"/>
</g>
<g clip-path="url(#clip1_1_3893)">
<path d="M29.3315 41.5371L30.2863 38.8846C30.3335 38.7538 30.4482 38.668 30.575 38.668C30.7018 38.668 30.8158 38.7538 30.863 38.8846L31.8177 41.5371L34.205 42.598C34.3227 42.6505 34.4 42.7771 34.4 42.918C34.4 43.0588 34.3227 43.1863 34.205 43.2388L31.8177 44.2996L30.863 46.9513C30.8158 47.0821 30.7018 47.168 30.575 47.168C30.4482 47.168 30.3335 47.0821 30.2863 46.9513L29.3315 44.2996L26.945 43.2388C26.8272 43.1863 26.75 43.0588 26.75 42.918C26.75 42.7771 26.8272 42.6505 26.945 42.598L29.3315 41.5371Z" fill="white"/>
</g>
<g clip-path="url(#clip2_1_3893)">
<path d="M35.0043 32.4454C35.296 32.3143 35.5293 32.0783 35.6584 31.7822L37.1525 28.3709C37.3081 28.0172 37.6534 27.7891 38.0353 27.7891C38.4172 27.7891 38.7633 28.0172 38.9181 28.3709L40.413 31.7822C40.5413 32.0783 40.7746 32.3151 41.0663 32.4454L44.4271 33.9627C44.7755 34.1199 45.0003 34.4712 45.0003 34.8588C45.0003 35.2464 44.7755 35.597 44.4271 35.7549L41.0663 37.2714C40.7746 37.4025 40.5421 37.6393 40.413 37.9354L38.9181 41.3467C38.7633 41.7004 38.4172 41.9285 38.0353 41.9285C37.6534 41.9285 37.3081 41.7004 37.1525 41.3467L35.6584 37.9354C35.5293 37.6393 35.296 37.4025 35.0043 37.2714L31.6435 35.7549C31.2951 35.597 31.0703 35.2464 31.0703 34.8588C31.0703 34.4712 31.2951 34.1199 31.6435 33.9627L35.0043 32.4454Z" fill="white"/>
</g>
</g>
<defs>
<clipPath id="clip0_1_3893">
<rect width="5" height="5" fill="white" transform="translate(28 25)"/>
</clipPath>
<clipPath id="clip1_1_3893">
<rect width="9" height="10" fill="white" transform="translate(26 38)"/>
</clipPath>
<clipPath id="clip2_1_3893">
<rect width="14" height="15" fill="white" transform="translate(31 27)"/>
</clipPath>
</defs>
</svg>
