<svg width="72" height="72" viewBox="0 0 72 72" fill="none" xmlns="http://www.w3.org/2000/svg">
<rect width="72" height="72" rx="24" fill="#002799" fill-opacity="0.15"/>
<rect x="18" y="18" width="36" height="36" rx="10" fill="#082A66"/>
<path d="M33.3869 40.5556L31.418 38.5867C32.1446 36.9226 33.8283 33.2075 35.1331 31.2816C37.9067 27.1993 41.9851 26.9845 44.5907 27.4415C45.0478 30.0471 44.8329 34.1255 40.7467 36.8952C38.8169 38.2039 35.0628 39.8485 33.3869 40.5556ZM30.2656 38.1023C30.0625 38.5672 30.1679 39.1063 30.5273 39.4657L32.5079 41.4463C32.8634 41.8018 33.3947 41.9112 33.8557 41.7159C34.1096 41.6104 34.4143 41.4815 34.7542 41.333L34.7581 45.3997C34.7581 45.6145 34.8714 45.8177 35.055 45.931C35.2386 46.0442 35.469 46.056 35.6644 45.9583L39.6295 43.9777C40.4772 43.5558 41.0124 42.6886 41.0124 41.7432V38.2156C41.1686 38.118 41.3132 38.0242 41.4538 37.9305C46.1689 34.731 46.3252 29.9651 45.8017 27.1212C45.7197 26.668 45.3642 26.3164 44.911 26.2305C42.0671 25.707 37.3012 25.8633 34.1018 30.5823C34.008 30.723 33.9104 30.8675 33.8166 31.0238H30.2929C29.3476 31.0238 28.4803 31.559 28.0584 32.4067L26.0739 36.3679C25.9763 36.5632 25.988 36.7898 26.1013 36.9773C26.2146 37.1648 26.4177 37.2742 26.6326 37.2742H30.6367C30.4961 37.5867 30.3711 37.868 30.2695 38.1023H30.2656ZM36.0081 44.3879V40.7744C37.1918 40.2392 38.563 39.5907 39.7584 38.9383V41.7393C39.7584 42.212 39.4927 42.6456 39.0669 42.8565L36.0081 44.3879ZM30.2929 32.2739H33.0861C32.4259 33.4731 31.7579 34.8443 31.2071 36.0241H27.6443L29.1718 32.9653C29.3827 32.5434 29.8163 32.2739 30.289 32.2739H30.2929ZM41.321 31.6488C41.321 31.8975 41.2222 32.1359 41.0464 32.3118C40.8705 32.4876 40.6321 32.5864 40.3834 32.5864C40.1348 32.5864 39.8963 32.4876 39.7205 32.3118C39.5446 32.1359 39.4459 31.8975 39.4459 31.6488C39.4459 31.4002 39.5446 31.1617 39.7205 30.9859C39.8963 30.81 40.1348 30.7113 40.3834 30.7113C40.6321 30.7113 40.8705 30.81 41.0464 30.9859C41.2222 31.1617 41.321 31.4002 41.321 31.6488ZM40.3834 29.4612C40.0961 29.4612 39.8117 29.5178 39.5462 29.6277C39.2808 29.7376 39.0397 29.8988 38.8365 30.1019C38.6334 30.3051 38.4722 30.5462 38.3623 30.8116C38.2524 31.0771 38.1958 31.3615 38.1958 31.6488C38.1958 31.9361 38.2524 32.2206 38.3623 32.486C38.4722 32.7514 38.6334 32.9926 38.8365 33.1957C39.0397 33.3988 39.2808 33.56 39.5462 33.6699C39.8117 33.7799 40.0961 33.8365 40.3834 33.8365C40.6707 33.8365 40.9552 33.7799 41.2206 33.6699C41.486 33.56 41.7272 33.3988 41.9303 33.1957C42.1334 32.9926 42.2946 32.7514 42.4045 32.486C42.5145 32.2206 42.5711 31.9361 42.5711 31.6488C42.5711 31.3615 42.5145 31.0771 42.4045 30.8116C42.2946 30.5462 42.1334 30.3051 41.9303 30.1019C41.7272 29.8988 41.486 29.7376 41.2206 29.6277C40.9552 29.5178 40.6707 29.4612 40.3834 29.4612Z" fill="white"/>
</svg>
