<svg width="40" height="41" viewBox="0 0 40 41" fill="none" xmlns="http://www.w3.org/2000/svg">
<rect y="0.5" width="40" height="40" rx="20" fill="#082A66"/>
<path d="M30.4956 20.6074C30.4909 21.2682 29.8489 21.9993 28.71 21.9993H24.1219C22.0504 21.9993 20.3726 23.6771 20.3726 25.7486C20.3726 26.011 20.4007 26.2735 20.4523 26.5266C20.5882 27.1733 20.8694 27.806 21.0709 28.2606C21.1084 28.3403 21.1412 28.4153 21.1693 28.4855C21.4036 29.0292 21.4927 29.3385 21.4927 29.5869C21.4927 30.4867 20.9162 30.9741 20.4288 30.9929C20.2835 30.9976 20.1383 31.0022 19.993 31.0022C14.2004 30.9976 9.49971 26.2969 9.49971 20.4996C9.49971 14.7023 14.2004 10.0017 19.9977 10.0017C25.795 10.0017 30.4956 14.7023 30.4956 20.4996C30.4956 20.5371 30.4956 20.5746 30.4956 20.6074ZM31.9953 20.6215C31.9953 20.5793 31.9953 20.5371 31.9953 20.4949C31.9953 13.8728 26.6245 8.50195 19.9977 8.50195C13.3708 8.50195 8 13.8728 8 20.4996C8 27.1264 13.3708 32.4973 19.9977 32.4973C20.1617 32.4973 20.3304 32.4926 20.4944 32.4879C21.9848 32.427 22.9971 31.0772 22.9971 29.5822C22.9971 28.9027 22.7112 28.2559 22.43 27.6138C22.2285 27.1546 22.0223 26.6906 21.9238 26.2126C21.891 26.0626 21.877 25.9079 21.877 25.7486C21.877 24.5066 22.8846 23.499 24.1265 23.499H28.7147C30.4253 23.499 31.9813 22.3368 32 20.6261L31.9953 20.6215ZM15.1236 20.4996C15.1236 20.2013 15.0051 19.9152 14.7942 19.7043C14.5832 19.4933 14.2971 19.3748 13.9988 19.3748C13.7005 19.3748 13.4144 19.4933 13.2035 19.7043C12.9926 19.9152 12.874 20.2013 12.874 20.4996C12.874 20.7979 12.9926 21.084 13.2035 21.2949C13.4144 21.5059 13.7005 21.6244 13.9988 21.6244C14.2971 21.6244 14.5832 21.5059 14.7942 21.2949C15.0051 21.084 15.1236 20.7979 15.1236 20.4996ZM15.4985 17.1253C15.7968 17.1253 16.0829 17.0068 16.2939 16.7958C16.5048 16.5849 16.6233 16.2988 16.6233 16.0005C16.6233 15.7022 16.5048 15.4161 16.2939 15.2051C16.0829 14.9942 15.7968 14.8757 15.4985 14.8757C15.2002 14.8757 14.9141 14.9942 14.7032 15.2051C14.4923 15.4161 14.3738 15.7022 14.3738 16.0005C14.3738 16.2988 14.4923 16.5849 14.7032 16.7958C14.9141 17.0068 15.2002 17.1253 15.4985 17.1253ZM21.1224 14.5008C21.1224 14.2025 21.0039 13.9164 20.793 13.7054C20.5821 13.4945 20.296 13.376 19.9977 13.376C19.6993 13.376 19.4133 13.4945 19.2023 13.7054C18.9914 13.9164 18.8729 14.2025 18.8729 14.5008C18.8729 14.7991 18.9914 15.0852 19.2023 15.2961C19.4133 15.5071 19.6993 15.6256 19.9977 15.6256C20.296 15.6256 20.5821 15.5071 20.793 15.2961C21.0039 15.0852 21.1224 14.7991 21.1224 14.5008ZM24.4968 17.1253C24.7951 17.1253 25.0812 17.0068 25.2921 16.7958C25.5031 16.5849 25.6216 16.2988 25.6216 16.0005C25.6216 15.7022 25.5031 15.4161 25.2921 15.2051C25.0812 14.9942 24.7951 14.8757 24.4968 14.8757C24.1985 14.8757 23.9124 14.9942 23.7014 15.2051C23.4905 15.4161 23.372 15.7022 23.372 16.0005C23.372 16.2988 23.4905 16.5849 23.7014 16.7958C23.9124 17.0068 24.1985 17.1253 24.4968 17.1253Z" fill="white"/>
</svg>
