<svg width="44" height="48" viewBox="0 0 44 48" fill="none" xmlns="http://www.w3.org/2000/svg">
<path d="M41.5228 12.3734L31.4428 2.4534C30.2695 1.1734 28.8295 0.533398 27.1228 0.533398H12.5628C10.4295 0.533398 8.48281 1.06673 6.72281 2.1334C4.96281 3.20007 3.54948 4.6134 2.48281 6.3734C1.41615 8.1334 0.882812 10.0801 0.882812 12.2134V36.0534C0.882812 38.1867 1.41615 40.1334 2.48281 41.8934C3.54948 43.6534 4.96281 45.0667 6.72281 46.1334C8.48281 47.2001 10.4295 47.7334 12.5628 47.7334H31.7628C33.8961 47.7334 35.8428 47.2001 37.6028 46.1334C39.3628 45.0667 40.7495 43.6534 41.7628 41.8934C42.7761 40.1334 43.2828 38.1867 43.2828 36.0534V16.8534C43.2828 15.0401 42.6961 13.5467 41.5228 12.3734ZM37.0428 13.0134H34.1628C33.2028 13.0134 32.4028 12.6934 31.7628 12.0534C31.1228 11.4134 30.8028 10.6134 30.8028 9.6534V6.7734L37.0428 13.0134ZM39.7628 36.2134C39.7628 38.4534 38.9628 40.3734 37.3628 41.9734C35.7628 43.5734 33.8428 44.3734 31.6028 44.3734H12.5628C10.3228 44.3734 8.40281 43.5734 6.80281 41.9734C5.20281 40.3734 4.40281 38.4534 4.40281 36.2134V12.2134C4.40281 9.9734 5.20281 8.08007 6.80281 6.5334C8.40281 4.98673 10.3228 4.2134 12.5628 4.2134H27.4428V9.8134C27.4428 11.6267 28.0828 13.2001 29.3628 14.5334C30.6428 15.8667 32.2428 16.5334 34.1628 16.5334H39.7628V36.2134ZM23.2828 16.6934C22.9628 16.3734 22.5628 16.2134 22.0828 16.2134C21.6028 16.2134 21.2028 16.3734 20.8828 16.6934L15.6028 21.9734C15.2828 22.2934 15.1228 22.6934 15.1228 23.1734C15.1228 23.6534 15.2828 24.0801 15.6028 24.4534C15.9228 24.8267 16.3228 25.0134 16.8028 25.0134C17.2828 25.0134 17.6295 24.8001 17.8428 24.3734L20.0828 22.1334V30.6134C20.0828 31.0401 20.2695 31.4401 20.6428 31.8134C21.0161 32.1867 21.4161 32.3734 21.8428 32.3734C22.2695 32.3734 22.6695 32.1867 23.0428 31.8134C23.4161 31.4401 23.6028 31.0401 23.6028 30.6134V22.1334L25.8428 24.3734C26.1628 24.8001 26.5628 25.0134 27.0428 25.0134C27.5228 25.0134 27.9228 24.8267 28.2428 24.4534C28.5628 24.0801 28.7228 23.6534 28.7228 23.1734C28.7228 22.6934 28.5628 22.2934 28.2428 21.9734L23.2828 16.6934Z" fill="#605880"/>
</svg>
