<svg width="228" height="22" viewBox="0 0 228 22" fill="none" xmlns="http://www.w3.org/2000/svg">
<line x1="0.5" y1="10.4199" x2="95.5" y2="10.4199" stroke="#C7D3E7"/>
<path d="M107.768 12.7759C107.768 13.3399 107.84 13.8439 107.984 14.2879C108.14 14.7199 108.35 15.0859 108.614 15.3859C108.878 15.6739 109.184 15.8959 109.532 16.0519C109.892 16.2079 110.27 16.2859 110.666 16.2859C111.062 16.2859 111.434 16.2079 111.782 16.0519C112.142 15.8959 112.454 15.6739 112.718 15.3859C112.982 15.0859 113.186 14.7199 113.33 14.2879C113.486 13.8439 113.564 13.3399 113.564 12.7759C113.564 12.2119 113.486 11.7139 113.33 11.2819C113.186 10.8379 112.982 10.4659 112.718 10.1659C112.454 9.86592 112.142 9.63792 111.782 9.48192C111.434 9.32592 111.062 9.24792 110.666 9.24792C110.27 9.24792 109.892 9.32592 109.532 9.48192C109.184 9.63792 108.878 9.86592 108.614 10.1659C108.35 10.4659 108.14 10.8379 107.984 11.2819C107.84 11.7139 107.768 12.2119 107.768 12.7759ZM106.148 12.7759C106.148 12.0919 106.244 11.4559 106.436 10.8679C106.628 10.2679 106.916 9.75192 107.3 9.31992C107.684 8.87592 108.158 8.52792 108.722 8.27592C109.286 8.02392 109.934 7.89792 110.666 7.89792C111.41 7.89792 112.058 8.02392 112.61 8.27592C113.174 8.52792 113.648 8.87592 114.032 9.31992C114.416 9.75192 114.704 10.2679 114.896 10.8679C115.088 11.4559 115.184 12.0919 115.184 12.7759C115.184 13.4599 115.088 14.0959 114.896 14.6839C114.704 15.2719 114.416 15.7879 114.032 16.2319C113.648 16.6639 113.174 17.0059 112.61 17.2579C112.058 17.4979 111.41 17.6179 110.666 17.6179C109.934 17.6179 109.286 17.4979 108.722 17.2579C108.158 17.0059 107.684 16.6639 107.3 16.2319C106.916 15.7879 106.628 15.2719 106.436 14.6839C106.244 14.0959 106.148 13.4599 106.148 12.7759ZM116.934 8.11392H118.374V10.0759H118.41C118.782 9.31992 119.238 8.76192 119.778 8.40192C120.318 8.04192 121.002 7.87392 121.83 7.89792V9.51792C121.218 9.51792 120.696 9.60192 120.264 9.76992C119.832 9.93792 119.484 10.1839 119.22 10.5079C118.956 10.8319 118.764 11.2279 118.644 11.6959C118.524 12.1519 118.464 12.6799 118.464 13.2799V17.4199H116.934V8.11392Z" fill="#082A66"/>
<line x1="132.5" y1="10.4199" x2="227.5" y2="10.4199" stroke="#C7D3E7"/>
</svg>
