<svg width="8" height="8" viewBox="0 0 14 14" fill="none" xmlns="http://www.w3.org/2000/svg">
<path d="M8.92227 0.267969C8.3125 0.0929688 7.66719 0 7 0C3.13359 0 0 3.13359 0 7C0 10.8664 3.13359 14 7 14C10.8664 14 14 10.8664 14 7C14 6.33281 13.907 5.6875 13.732 5.07773L13.1086 5.77227C13.0785 5.80508 13.0512 5.83516 13.0184 5.86523C13.0867 6.23438 13.1223 6.61172 13.1223 7C13.1223 10.3824 10.3797 13.125 6.99727 13.125C3.61484 13.125 0.875 10.3824 0.875 7C0.875 3.61758 3.61758 0.875 7 0.875C7.38828 0.875 7.76836 0.910547 8.13477 0.978906C8.16484 0.948828 8.19492 0.91875 8.22773 0.888672L8.92227 0.267969ZM7.50859 2.65508C7.3418 2.63594 7.17227 2.625 7 2.625C4.58281 2.625 2.625 4.58281 2.625 7C2.625 9.41719 4.58281 11.375 7 11.375C9.41719 11.375 11.375 9.41719 11.375 7C11.375 6.82773 11.3641 6.6582 11.3449 6.49141C11.2711 6.48594 11.1973 6.47773 11.1234 6.4668L10.4398 6.35195C10.4781 6.5625 10.5 6.77852 10.5 7C10.5 8.9332 8.9332 10.5 7 10.5C5.0668 10.5 3.5 8.9332 3.5 7C3.5 5.0668 5.0668 3.5 7 3.5C7.22148 3.5 7.4375 3.52187 7.64805 3.56016L7.5332 2.87656C7.51953 2.80273 7.51133 2.72891 7.50859 2.65508ZM9.33789 5.28281L11.2629 5.60273C11.7086 5.67656 12.1598 5.51797 12.4605 5.17891L13.6609 3.82812C13.9809 3.46992 13.8195 2.90117 13.3602 2.76445L11.7277 2.275L11.2355 0.639844C11.0988 0.180469 10.5301 0.0191406 10.1719 0.339062L8.82109 1.53945C8.48477 1.84023 8.32344 2.29141 8.39727 2.73711L8.71719 4.66211L6.68828 6.69102C6.51875 6.86055 6.51875 7.13945 6.68828 7.30898C6.85781 7.47852 7.13672 7.47852 7.30625 7.30898L9.33516 5.28008L9.33789 5.28281ZM10.098 4.52266L11.5008 3.11992L12.7805 3.50273L11.807 4.59648C11.7059 4.70859 11.5555 4.76328 11.4078 4.73867L10.098 4.51992V4.52266ZM10.8801 2.50195L9.47734 3.90469L9.25859 2.59492C9.23398 2.44727 9.28594 2.29688 9.40078 2.1957L10.4945 1.22227L10.8773 2.50195H10.8801Z" fill="#374151"/>
</svg>
