<svg width="14" height="14" viewBox="0 0 14 14" fill="none" xmlns="http://www.w3.org/2000/svg">
<g clip-path="url(#clip0_1_4281)">
<path d="M11.375 1.20988C11.375 1.01301 11.1344 0.914568 10.9977 1.05949L10.3469 1.74855C9.20117 2.95441 7.73008 3.78566 6.125 4.14386V8.98371C7.73008 9.34191 9.20117 10.1704 10.3469 11.379L10.9977 12.0653C11.1344 12.2103 11.375 12.1118 11.375 11.915V1.20988ZM5.25 8.83605V4.29152C5.09141 4.31066 4.93281 4.3216 4.77148 4.33254L3.96211 4.37629H3.95117H3.9375H1.75C1.26602 4.37629 0.875 4.7673 0.875 5.25129V7.87629C0.875 8.36027 1.26602 8.75129 1.75 8.75129H3.9375H3.94844H3.95938L4.77148 8.79504C4.93008 8.80324 5.09141 8.81691 5.25 8.83605ZM10.3633 0.457928C11.0441 -0.261213 12.25 0.220037 12.25 1.20988V11.9177C12.25 12.9075 11.0414 13.3888 10.3633 12.6696L9.7125 11.9833C8.52852 10.7337 6.95078 9.93527 5.25273 9.71925V12.47C5.25273 13.315 4.56641 14.0013 3.72148 14.0013H3.28125C2.43633 14.0013 1.75 13.315 1.75 12.47V9.62629C0.784766 9.62629 0 8.84152 0 7.87629V5.25129C0 4.28605 0.784766 3.50129 1.75 3.50129H3.92656L4.725 3.45754C6.62266 3.3509 8.40547 2.52512 9.7125 1.14699L10.3633 0.457928ZM2.625 9.62629V12.47C2.625 12.8337 2.91758 13.1263 3.28125 13.1263H3.71875C4.08242 13.1263 4.375 12.8337 4.375 12.47V9.65089L3.92656 9.62629H2.625ZM13.5625 5.25129C13.8031 5.25129 14 5.44816 14 5.68879V7.43879C14 7.67941 13.8031 7.87629 13.5625 7.87629C13.3219 7.87629 13.125 7.67941 13.125 7.43879V5.68879C13.125 5.44816 13.3219 5.25129 13.5625 5.25129Z" fill="white"/>
</g>
<defs>
<clipPath id="clip0_1_4281">
<rect width="14" height="14" fill="white"/>
</clipPath>
</defs>
</svg>
