<svg width="41" height="41" viewBox="0 0 41 41" fill="none" xmlns="http://www.w3.org/2000/svg">
<rect x="0.5" y="0.304688" width="40" height="40" rx="20" fill="#1E1154" fill-opacity="0.15"/>
<g clip-path="url(#clip0_1_2420)">
<path d="M20.5 30.8047C16.3562 30.8047 13 27.4484 13 23.3047C13 22.5453 13.2859 21.4672 13.8578 20.1406C14.4156 18.8469 15.1938 17.4453 16.0422 16.0719C17.725 13.3531 19.6234 10.8734 20.4719 9.80469H20.5328C21.3812 10.8781 23.2797 13.3531 24.9625 16.0719C25.8109 17.4406 26.5844 18.8422 27.1469 20.1406C27.7141 21.4672 28 22.5453 28 23.3047C28 27.4484 24.6438 30.8047 20.5 30.8047ZM11.5 23.3047C11.5 28.2734 15.5312 32.3047 20.5 32.3047C25.4688 32.3047 29.5 28.2734 29.5 23.3047C29.5 19.0297 23.3969 11.0094 21.6906 8.85312C21.4094 8.50156 20.9922 8.30469 20.5422 8.30469H20.4578C20.0078 8.30469 19.5906 8.50156 19.3094 8.85312C17.6031 11.0094 11.5 19.0297 11.5 23.3047ZM16.75 23.3047C16.75 22.8922 16.4125 22.5547 16 22.5547C15.5875 22.5547 15.25 22.8922 15.25 23.3047C15.25 26.2062 17.5984 28.5547 20.5 28.5547C20.9125 28.5547 21.25 28.2172 21.25 27.8047C21.25 27.3922 20.9125 27.0547 20.5 27.0547C18.4281 27.0547 16.75 25.3766 16.75 23.3047Z" fill="#1A1A1A"/>
</g>
<defs>
<clipPath id="clip0_1_2420">
<rect width="18" height="24" fill="white" transform="translate(11.5 8.30469)"/>
</clipPath>
</defs>
</svg>
