<svg width="24" height="25" viewBox="0 0 24 25" fill="none" xmlns="http://www.w3.org/2000/svg">
<g clip-path="url(#clip0_1_269)">
<path d="M12.0004 3.41992C5.89729 3.41992 1.50041 7.38555 1.50041 11.6699C1.50041 13.409 2.22698 14.9793 3.37541 16.3574C3.61916 16.6527 3.76916 17.0512 3.72229 17.4777C3.57698 18.7434 3.18791 19.9387 2.5176 21.0543C2.49416 21.0965 2.46604 21.1387 2.4426 21.1762C2.96291 21.0402 3.48323 20.848 3.97541 20.6371C4.77229 20.2902 5.52229 19.8543 6.24416 19.3527C6.6426 19.0762 7.15354 19.0012 7.61291 19.1559C9.04729 19.6434 10.5004 19.9199 12.0004 19.9199C18.1035 19.9199 22.5004 15.9543 22.5004 11.6699C22.5004 7.38555 18.1035 3.41992 12.0004 3.41992ZM0.00041352 11.6699C0.00041352 6.28867 5.3676 1.91992 12.0004 1.91992C18.6332 1.91992 24.0004 6.28867 24.0004 11.6699C24.0004 17.0512 18.6332 21.4199 12.0004 21.4199C10.3129 21.4199 8.69573 21.1059 7.13479 20.5809C7.12541 20.5762 7.11135 20.5809 7.10198 20.5855C6.30979 21.134 5.47541 21.6215 4.57541 22.0152C3.45041 22.5027 2.09573 22.9199 0.750414 22.9199C0.445726 22.9199 0.173851 22.7371 0.0566635 22.4605C-0.060524 22.184 0.00510101 21.8605 0.216039 21.6449C0.595726 21.2605 0.928539 20.7918 1.23323 20.2855C1.78166 19.3668 2.10979 18.3824 2.23166 17.3277C2.23166 17.3277 2.22698 17.323 2.22698 17.3184C0.919164 15.7527 0.00041352 13.8543 0.00041352 11.6699Z" fill="#374151"/>
</g>
<defs>
<clipPath id="clip0_1_269">
<rect width="24" height="24" fill="white" transform="translate(0 0.419922)"/>
</clipPath>
</defs>
</svg>
