<svg width="12" height="13" viewBox="0 0 12 13" fill="none" xmlns="http://www.w3.org/2000/svg">
<path d="M10.5 8.75H6.75C6.33516 8.75 6 8.41484 6 8V2C6 1.58516 6.33516 1.25 6.75 1.25H9.28359C9.38203 1.25 9.47812 1.28984 9.54844 1.36016L11.1398 2.95156C11.2102 3.02187 11.25 3.11797 11.25 3.21641V8C11.25 8.41484 10.9148 8.75 10.5 8.75ZM11.6695 2.41953L10.0805 0.830469C9.86953 0.619531 9.58359 0.5 9.28594 0.5H6.75C5.92266 0.5 5.25 1.17266 5.25 2V8C5.25 8.82734 5.92266 9.5 6.75 9.5H10.5C11.3273 9.5 12 8.82734 12 8V3.21641C12 2.91875 11.8805 2.63281 11.6695 2.42188V2.41953ZM1.5 3.5C0.672656 3.5 0 4.17266 0 5V11C0 11.8273 0.672656 12.5 1.5 12.5H5.25C6.07734 12.5 6.75 11.8273 6.75 11V10.25H6V11C6 11.4148 5.66484 11.75 5.25 11.75H1.5C1.08516 11.75 0.75 11.4148 0.75 11V5C0.75 4.58516 1.08516 4.25 1.5 4.25H4.5V3.5H1.5Z" fill="#6B7280"/>
</svg>
