<svg width="120" height="13" viewBox="0 0 120 13" fill="none" xmlns="http://www.w3.org/2000/svg">
<path d="M0 11.27H11V0.27H0V11.27ZM19.3574 8.01318H20.3887C20.335 8.50732 20.1935 8.94954 19.9644 9.33984C19.7352 9.73014 19.4111 10.0399 18.9922 10.269C18.5732 10.4946 18.0505 10.6074 17.4238 10.6074C16.9655 10.6074 16.5483 10.5215 16.1724 10.3496C15.8 10.1777 15.4795 9.93424 15.2109 9.61914C14.9424 9.30046 14.7347 8.91911 14.5879 8.4751C14.4447 8.02751 14.373 7.52979 14.373 6.98193V6.20312C14.373 5.65527 14.4447 5.15934 14.5879 4.71533C14.7347 4.26774 14.9442 3.8846 15.2163 3.56592C15.492 3.24723 15.8232 3.00195 16.21 2.83008C16.5967 2.6582 17.0317 2.57227 17.5151 2.57227C18.106 2.57227 18.6055 2.68327 19.0137 2.90527C19.4219 3.12728 19.7388 3.43522 19.9644 3.8291C20.1935 4.2194 20.335 4.67236 20.3887 5.18799H19.3574C19.3073 4.82275 19.2142 4.50944 19.0781 4.24805C18.9421 3.98307 18.7487 3.77897 18.498 3.63574C18.2474 3.49251 17.9198 3.4209 17.5151 3.4209C17.1678 3.4209 16.8617 3.48714 16.5967 3.61963C16.3353 3.75212 16.1151 3.9401 15.936 4.18359C15.7606 4.42708 15.6281 4.71891 15.5386 5.05908C15.4491 5.39925 15.4043 5.77702 15.4043 6.19238V6.98193C15.4043 7.36507 15.4437 7.72493 15.5225 8.06152C15.6048 8.39811 15.7284 8.69352 15.8931 8.94775C16.0578 9.20199 16.2673 9.40251 16.5215 9.54932C16.7757 9.69255 17.0765 9.76416 17.4238 9.76416C17.8643 9.76416 18.2152 9.69434 18.4766 9.55469C18.738 9.41504 18.9349 9.21452 19.0674 8.95312C19.2035 8.69173 19.3001 8.37842 19.3574 8.01318ZM25.0776 9.50635V6.51465C25.0776 6.28548 25.0311 6.08675 24.938 5.91846C24.8485 5.74658 24.7124 5.6141 24.5298 5.521C24.3472 5.4279 24.1216 5.38135 23.853 5.38135C23.6024 5.38135 23.3822 5.42432 23.1924 5.51025C23.0062 5.59619 22.8594 5.70898 22.752 5.84863C22.6481 5.98828 22.5962 6.13867 22.5962 6.2998H21.6025C21.6025 6.09212 21.6562 5.88623 21.7637 5.68213C21.8711 5.47803 22.0251 5.29362 22.2256 5.12891C22.4297 4.96061 22.6732 4.82812 22.9561 4.73145C23.2425 4.63118 23.5612 4.58105 23.9121 4.58105C24.3346 4.58105 24.707 4.65267 25.0293 4.7959C25.3551 4.93913 25.6094 5.15576 25.792 5.4458C25.9782 5.73226 26.0713 6.09212 26.0713 6.52539V9.23242C26.0713 9.42578 26.0874 9.63167 26.1196 9.8501C26.1554 10.0685 26.2074 10.2565 26.2754 10.4141V10.5H25.2388C25.1886 10.3854 25.1493 10.2332 25.1206 10.0435C25.092 9.8501 25.0776 9.67106 25.0776 9.50635ZM25.2495 6.97656L25.2603 7.6748H24.2559C23.973 7.6748 23.7205 7.69808 23.4985 7.74463C23.2765 7.7876 23.0903 7.85384 22.9399 7.94336C22.7896 8.03288 22.675 8.14567 22.5962 8.28174C22.5174 8.41423 22.478 8.56999 22.478 8.74902C22.478 8.93164 22.5192 9.09814 22.6016 9.24854C22.6839 9.39893 22.8075 9.51888 22.9722 9.6084C23.1405 9.69434 23.3464 9.7373 23.5898 9.7373C23.8942 9.7373 24.1628 9.67285 24.3955 9.54395C24.6283 9.41504 24.8127 9.25749 24.9487 9.07129C25.0884 8.88509 25.1636 8.70426 25.1743 8.52881L25.5986 9.00684C25.5736 9.15723 25.5055 9.32373 25.3945 9.50635C25.2835 9.68896 25.1349 9.86442 24.9487 10.0327C24.7661 10.1974 24.5477 10.3353 24.2935 10.4463C24.0428 10.5537 23.7599 10.6074 23.4448 10.6074C23.0509 10.6074 22.7054 10.5304 22.4082 10.3765C22.1146 10.2225 21.8854 10.0166 21.7207 9.75879C21.5596 9.4974 21.479 9.20557 21.479 8.8833C21.479 8.57178 21.5399 8.29785 21.6616 8.06152C21.7834 7.82161 21.9588 7.62288 22.188 7.46533C22.4172 7.3042 22.6929 7.18245 23.0151 7.1001C23.3374 7.01774 23.6973 6.97656 24.0947 6.97656H25.2495ZM28.7139 2.25V10.5H27.7148V2.25H28.7139ZM31.7915 10.5H30.7979V4.07617C30.7979 3.65723 30.873 3.30452 31.0234 3.01807C31.1774 2.72803 31.3976 2.5096 31.6841 2.36279C31.9705 2.2124 32.3107 2.13721 32.7046 2.13721C32.8192 2.13721 32.9338 2.14437 33.0483 2.15869C33.1665 2.17301 33.2811 2.1945 33.3921 2.22314L33.3384 3.03418C33.2632 3.01628 33.1772 3.00374 33.0806 2.99658C32.9875 2.98942 32.8944 2.98584 32.8013 2.98584C32.59 2.98584 32.4074 3.02881 32.2534 3.11475C32.103 3.1971 31.9884 3.31885 31.9097 3.47998C31.8309 3.64111 31.7915 3.83984 31.7915 4.07617V10.5ZM33.0269 4.68848V5.45117H29.8794V4.68848H33.0269ZM36.2012 6.76709V7.5835H33.5801V6.76709H36.2012ZM42.0664 9.65674V10.5H38.1562V9.65674H42.0664ZM38.3604 2.67969V10.5H37.3237V2.67969H38.3604ZM45.5146 10.6074C45.11 10.6074 44.743 10.5394 44.4136 10.4033C44.0877 10.2637 43.8066 10.0685 43.5703 9.81787C43.3376 9.56722 43.1585 9.27002 43.0332 8.92627C42.9079 8.58252 42.8452 8.20654 42.8452 7.79834V7.57275C42.8452 7.1001 42.915 6.67936 43.0547 6.31055C43.1943 5.93815 43.3841 5.62305 43.624 5.36523C43.8639 5.10742 44.1361 4.91227 44.4404 4.77979C44.7448 4.6473 45.0599 4.58105 45.3857 4.58105C45.8011 4.58105 46.1592 4.65267 46.46 4.7959C46.7643 4.93913 47.0132 5.13965 47.2065 5.39746C47.3999 5.65169 47.5431 5.95247 47.6362 6.2998C47.7293 6.64355 47.7759 7.01953 47.7759 7.42773V7.87354H43.436V7.0625H46.7822V6.9873C46.7679 6.72949 46.7142 6.47884 46.6211 6.23535C46.5316 5.99186 46.3883 5.79134 46.1914 5.63379C45.9945 5.47624 45.7259 5.39746 45.3857 5.39746C45.1602 5.39746 44.9525 5.4458 44.7627 5.54248C44.5729 5.63558 44.41 5.77523 44.2739 5.96143C44.1379 6.14762 44.0322 6.375 43.957 6.64355C43.8818 6.91211 43.8442 7.22184 43.8442 7.57275V7.79834C43.8442 8.07406 43.8818 8.33366 43.957 8.57715C44.0358 8.81706 44.1486 9.02832 44.2954 9.21094C44.4458 9.39355 44.6266 9.53678 44.8379 9.64062C45.0527 9.74447 45.2962 9.79639 45.5684 9.79639C45.9193 9.79639 46.2165 9.72477 46.46 9.58154C46.7035 9.43831 46.9165 9.24674 47.0991 9.00684L47.7007 9.48486C47.5754 9.67464 47.416 9.85547 47.2227 10.0273C47.0293 10.1992 46.7912 10.3389 46.5083 10.4463C46.229 10.5537 45.8978 10.6074 45.5146 10.6074ZM49.9297 5.9292V10.5H48.936V4.68848H49.876L49.9297 5.9292ZM49.6934 7.37402L49.2798 7.35791C49.2834 6.96045 49.3424 6.59342 49.457 6.25684C49.5716 5.91667 49.7327 5.62126 49.9404 5.37061C50.1481 5.11995 50.3952 4.9266 50.6816 4.79053C50.9717 4.65088 51.2922 4.58105 51.6431 4.58105C51.9295 4.58105 52.1873 4.62044 52.4165 4.69922C52.6457 4.77441 52.8408 4.89616 53.002 5.06445C53.1667 5.23275 53.292 5.45117 53.3779 5.71973C53.4639 5.9847 53.5068 6.30876 53.5068 6.69189V10.5H52.5078V6.68115C52.5078 6.37679 52.4631 6.1333 52.3735 5.95068C52.284 5.76449 52.1533 5.63021 51.9814 5.54785C51.8096 5.46191 51.5983 5.41895 51.3477 5.41895C51.1006 5.41895 50.875 5.47087 50.6709 5.57471C50.4704 5.67855 50.2967 5.82178 50.1499 6.00439C50.0067 6.18701 49.8939 6.39648 49.8115 6.63281C49.7327 6.86556 49.6934 7.11263 49.6934 7.37402ZM58.7812 4.68848H59.6836V10.3765C59.6836 10.8885 59.5798 11.3254 59.3721 11.687C59.1644 12.0487 58.8743 12.3226 58.502 12.5088C58.1331 12.6986 57.707 12.7935 57.2236 12.7935C57.0231 12.7935 56.7868 12.7612 56.5146 12.6968C56.2461 12.6359 55.9811 12.5303 55.7197 12.3799C55.4619 12.2331 55.2453 12.0343 55.0698 11.7837L55.5908 11.1929C55.8343 11.4865 56.0885 11.6906 56.3535 11.8052C56.6221 11.9198 56.887 11.9771 57.1484 11.9771C57.4635 11.9771 57.7357 11.918 57.9648 11.7998C58.194 11.6816 58.3713 11.5062 58.4966 11.2734C58.6255 11.0443 58.6899 10.7614 58.6899 10.4248V5.9668L58.7812 4.68848ZM54.7798 7.65869V7.5459C54.7798 7.10189 54.8317 6.69906 54.9355 6.3374C55.043 5.97217 55.1951 5.65885 55.3921 5.39746C55.5926 5.13607 55.8343 4.93555 56.1172 4.7959C56.4001 4.65267 56.7188 4.58105 57.0732 4.58105C57.4385 4.58105 57.7572 4.64551 58.0293 4.77441C58.305 4.89974 58.5378 5.08415 58.7275 5.32764C58.9209 5.56755 59.0731 5.85758 59.1841 6.19775C59.2951 6.53792 59.3721 6.92285 59.415 7.35254V7.84668C59.3757 8.27279 59.2987 8.65592 59.1841 8.99609C59.0731 9.33626 58.9209 9.6263 58.7275 9.86621C58.5378 10.1061 58.305 10.2905 58.0293 10.4194C57.7536 10.5448 57.4313 10.6074 57.0625 10.6074C56.7152 10.6074 56.4001 10.534 56.1172 10.3872C55.8379 10.2404 55.598 10.0345 55.3975 9.76953C55.1969 9.50456 55.043 9.19303 54.9355 8.83496C54.8317 8.47331 54.7798 8.08122 54.7798 7.65869ZM55.7734 7.5459V7.65869C55.7734 7.94873 55.8021 8.22087 55.8594 8.4751C55.9202 8.72933 56.0116 8.95312 56.1333 9.14648C56.2586 9.33984 56.418 9.49202 56.6113 9.60303C56.8047 9.71045 57.0356 9.76416 57.3042 9.76416C57.6336 9.76416 57.9058 9.69434 58.1206 9.55469C58.3354 9.41504 58.5055 9.23063 58.6309 9.00146C58.7598 8.7723 58.86 8.52344 58.9316 8.25488V6.96045C58.8923 6.76351 58.8314 6.57373 58.749 6.39111C58.6702 6.20492 58.5664 6.0402 58.4375 5.89697C58.3122 5.75016 58.1564 5.63379 57.9702 5.54785C57.784 5.46191 57.5656 5.41895 57.3149 5.41895C57.0428 5.41895 56.8083 5.47624 56.6113 5.59082C56.418 5.70182 56.2586 5.85579 56.1333 6.05273C56.0116 6.24609 55.9202 6.47168 55.8594 6.72949C55.8021 6.98372 55.7734 7.25586 55.7734 7.5459ZM63.626 4.68848V5.45117H60.4839V4.68848H63.626ZM61.5474 3.27588H62.541V9.06055C62.541 9.25749 62.5715 9.40609 62.6323 9.50635C62.6932 9.60661 62.772 9.67285 62.8687 9.70508C62.9653 9.7373 63.0692 9.75342 63.1802 9.75342C63.2625 9.75342 63.3485 9.74626 63.438 9.73193C63.5311 9.71403 63.6009 9.69971 63.6475 9.68896L63.6528 10.5C63.5741 10.5251 63.4702 10.5483 63.3413 10.5698C63.216 10.5949 63.0638 10.6074 62.8848 10.6074C62.6413 10.6074 62.4175 10.5591 62.2134 10.4624C62.0093 10.3657 61.8464 10.2046 61.7246 9.979C61.6064 9.74984 61.5474 9.44189 61.5474 9.05518V3.27588ZM65.7852 2.25V10.5H64.7915V2.25H65.7852ZM65.5488 7.37402L65.1353 7.35791C65.1388 6.96045 65.1979 6.59342 65.3125 6.25684C65.4271 5.91667 65.5882 5.62126 65.7959 5.37061C66.0036 5.11995 66.2507 4.9266 66.5371 4.79053C66.8271 4.65088 67.1476 4.58105 67.4985 4.58105C67.785 4.58105 68.0428 4.62044 68.272 4.69922C68.5011 4.77441 68.6963 4.89616 68.8574 5.06445C69.0221 5.23275 69.1475 5.45117 69.2334 5.71973C69.3193 5.9847 69.3623 6.30876 69.3623 6.69189V10.5H68.3633V6.68115C68.3633 6.37679 68.3185 6.1333 68.229 5.95068C68.1395 5.76449 68.0088 5.63021 67.8369 5.54785C67.665 5.46191 67.4538 5.41895 67.2031 5.41895C66.9561 5.41895 66.7305 5.47087 66.5264 5.57471C66.3258 5.67855 66.1522 5.82178 66.0054 6.00439C65.8621 6.18701 65.7493 6.39648 65.667 6.63281C65.5882 6.86556 65.5488 7.11263 65.5488 7.37402ZM77.0054 9.50635V6.51465C77.0054 6.28548 76.9588 6.08675 76.8657 5.91846C76.7762 5.74658 76.6401 5.6141 76.4575 5.521C76.2749 5.4279 76.0493 5.38135 75.7808 5.38135C75.5301 5.38135 75.3099 5.42432 75.1201 5.51025C74.9339 5.59619 74.7871 5.70898 74.6797 5.84863C74.5758 5.98828 74.5239 6.13867 74.5239 6.2998H73.5303C73.5303 6.09212 73.584 5.88623 73.6914 5.68213C73.7988 5.47803 73.9528 5.29362 74.1533 5.12891C74.3574 4.96061 74.6009 4.82812 74.8838 4.73145C75.1702 4.63118 75.4889 4.58105 75.8398 4.58105C76.2624 4.58105 76.6348 4.65267 76.957 4.7959C77.2829 4.93913 77.5371 5.15576 77.7197 5.4458C77.9059 5.73226 77.999 6.09212 77.999 6.52539V9.23242C77.999 9.42578 78.0151 9.63167 78.0474 9.8501C78.0832 10.0685 78.1351 10.2565 78.2031 10.4141V10.5H77.1665C77.1164 10.3854 77.077 10.2332 77.0483 10.0435C77.0197 9.8501 77.0054 9.67106 77.0054 9.50635ZM77.1772 6.97656L77.188 7.6748H76.1836C75.9007 7.6748 75.6483 7.69808 75.4263 7.74463C75.2043 7.7876 75.0181 7.85384 74.8677 7.94336C74.7173 8.03288 74.6027 8.14567 74.5239 8.28174C74.4451 8.41423 74.4058 8.56999 74.4058 8.74902C74.4058 8.93164 74.4469 9.09814 74.5293 9.24854C74.6117 9.39893 74.7352 9.51888 74.8999 9.6084C75.0682 9.69434 75.2741 9.7373 75.5176 9.7373C75.8219 9.7373 76.0905 9.67285 76.3232 9.54395C76.556 9.41504 76.7404 9.25749 76.8765 9.07129C77.0161 8.88509 77.0913 8.70426 77.1021 8.52881L77.5264 9.00684C77.5013 9.15723 77.4333 9.32373 77.3223 9.50635C77.2113 9.68896 77.0627 9.86442 76.8765 10.0327C76.6938 10.1974 76.4754 10.3353 76.2212 10.4463C75.9705 10.5537 75.6877 10.6074 75.3726 10.6074C74.9787 10.6074 74.6331 10.5304 74.3359 10.3765C74.0423 10.2225 73.8132 10.0166 73.6484 9.75879C73.4873 9.4974 73.4067 9.20557 73.4067 8.8833C73.4067 8.57178 73.4676 8.29785 73.5894 8.06152C73.7111 7.82161 73.8866 7.62288 74.1157 7.46533C74.3449 7.3042 74.6206 7.18245 74.9429 7.1001C75.2651 7.01774 75.625 6.97656 76.0225 6.97656H77.1772ZM80.5557 5.9292V10.5H79.562V4.68848H80.502L80.5557 5.9292ZM80.3193 7.37402L79.9058 7.35791C79.9093 6.96045 79.9684 6.59342 80.083 6.25684C80.1976 5.91667 80.3587 5.62126 80.5664 5.37061C80.7741 5.11995 81.0212 4.9266 81.3076 4.79053C81.5977 4.65088 81.9181 4.58105 82.269 4.58105C82.5555 4.58105 82.8133 4.62044 83.0425 4.69922C83.2716 4.77441 83.4668 4.89616 83.6279 5.06445C83.7926 5.23275 83.918 5.45117 84.0039 5.71973C84.0898 5.9847 84.1328 6.30876 84.1328 6.69189V10.5H83.1338V6.68115C83.1338 6.37679 83.089 6.1333 82.9995 5.95068C82.91 5.76449 82.7793 5.63021 82.6074 5.54785C82.4355 5.46191 82.2243 5.41895 81.9736 5.41895C81.7266 5.41895 81.501 5.47087 81.2969 5.57471C81.0964 5.67855 80.9227 5.82178 80.7759 6.00439C80.6326 6.18701 80.5199 6.39648 80.4375 6.63281C80.3587 6.86556 80.3193 7.11263 80.3193 7.37402ZM89.3052 9.37207V2.25H90.3042V10.5H89.3911L89.3052 9.37207ZM85.395 7.65869V7.5459C85.395 7.10189 85.4487 6.69906 85.5562 6.3374C85.6672 5.97217 85.8229 5.65885 86.0234 5.39746C86.2275 5.13607 86.4692 4.93555 86.7485 4.7959C87.0314 4.65267 87.3465 4.58105 87.6938 4.58105C88.0591 4.58105 88.3778 4.64551 88.6499 4.77441C88.9256 4.89974 89.1584 5.08415 89.3481 5.32764C89.5415 5.56755 89.6937 5.85758 89.8047 6.19775C89.9157 6.53792 89.9927 6.92285 90.0356 7.35254V7.84668C89.9963 8.27279 89.9193 8.65592 89.8047 8.99609C89.6937 9.33626 89.5415 9.6263 89.3481 9.86621C89.1584 10.1061 88.9256 10.2905 88.6499 10.4194C88.3742 10.5448 88.0519 10.6074 87.6831 10.6074C87.3429 10.6074 87.0314 10.534 86.7485 10.3872C86.4692 10.2404 86.2275 10.0345 86.0234 9.76953C85.8229 9.50456 85.6672 9.19303 85.5562 8.83496C85.4487 8.47331 85.395 8.08122 85.395 7.65869ZM86.394 7.5459V7.65869C86.394 7.94873 86.4227 8.22087 86.48 8.4751C86.5409 8.72933 86.634 8.95312 86.7593 9.14648C86.8846 9.33984 87.0439 9.49202 87.2373 9.60303C87.4307 9.71045 87.6616 9.76416 87.9302 9.76416C88.2596 9.76416 88.5299 9.69434 88.7412 9.55469C88.9561 9.41504 89.1279 9.23063 89.2568 9.00146C89.3857 8.7723 89.486 8.52344 89.5576 8.25488V6.96045C89.5146 6.76351 89.452 6.57373 89.3696 6.39111C89.2909 6.20492 89.187 6.0402 89.0581 5.89697C88.9328 5.75016 88.777 5.63379 88.5908 5.54785C88.4082 5.46191 88.1916 5.41895 87.9409 5.41895C87.6688 5.41895 87.4342 5.47624 87.2373 5.59082C87.0439 5.70182 86.8846 5.85579 86.7593 6.05273C86.634 6.24609 86.5409 6.47168 86.48 6.72949C86.4227 6.98372 86.394 7.25586 86.394 7.5459ZM99.4727 9.65674V10.5H95.5625V9.65674H99.4727ZM95.7666 2.67969V10.5H94.73V2.67969H95.7666ZM101.589 4.68848V10.5H100.59V4.68848H101.589ZM100.515 3.14697C100.515 2.98584 100.563 2.84977 100.66 2.73877C100.76 2.62777 100.907 2.57227 101.1 2.57227C101.29 2.57227 101.435 2.62777 101.535 2.73877C101.639 2.84977 101.691 2.98584 101.691 3.14697C101.691 3.30094 101.639 3.43343 101.535 3.54443C101.435 3.65186 101.29 3.70557 101.1 3.70557C100.907 3.70557 100.76 3.65186 100.66 3.54443C100.563 3.43343 100.515 3.30094 100.515 3.14697ZM104.178 5.9292V10.5H103.184V4.68848H104.124L104.178 5.9292ZM103.941 7.37402L103.528 7.35791C103.531 6.96045 103.59 6.59342 103.705 6.25684C103.82 5.91667 103.981 5.62126 104.188 5.37061C104.396 5.11995 104.643 4.9266 104.93 4.79053C105.22 4.65088 105.54 4.58105 105.891 4.58105C106.178 4.58105 106.435 4.62044 106.665 4.69922C106.894 4.77441 107.089 4.89616 107.25 5.06445C107.415 5.23275 107.54 5.45117 107.626 5.71973C107.712 5.9847 107.755 6.30876 107.755 6.69189V10.5H106.756V6.68115C106.756 6.37679 106.711 6.1333 106.622 5.95068C106.532 5.76449 106.401 5.63021 106.229 5.54785C106.058 5.46191 105.846 5.41895 105.596 5.41895C105.349 5.41895 105.123 5.47087 104.919 5.57471C104.718 5.67855 104.545 5.82178 104.398 6.00439C104.255 6.18701 104.142 6.39648 104.06 6.63281C103.981 6.86556 103.941 7.11263 103.941 7.37402ZM111.676 10.6074C111.271 10.6074 110.904 10.5394 110.575 10.4033C110.249 10.2637 109.968 10.0685 109.731 9.81787C109.499 9.56722 109.32 9.27002 109.194 8.92627C109.069 8.58252 109.006 8.20654 109.006 7.79834V7.57275C109.006 7.1001 109.076 6.67936 109.216 6.31055C109.355 5.93815 109.545 5.62305 109.785 5.36523C110.025 5.10742 110.297 4.91227 110.602 4.77979C110.906 4.6473 111.221 4.58105 111.547 4.58105C111.962 4.58105 112.32 4.65267 112.621 4.7959C112.925 4.93913 113.174 5.13965 113.368 5.39746C113.561 5.65169 113.704 5.95247 113.797 6.2998C113.89 6.64355 113.937 7.01953 113.937 7.42773V7.87354H109.597V7.0625H112.943V6.9873C112.929 6.72949 112.875 6.47884 112.782 6.23535C112.693 5.99186 112.549 5.79134 112.353 5.63379C112.156 5.47624 111.887 5.39746 111.547 5.39746C111.321 5.39746 111.114 5.4458 110.924 5.54248C110.734 5.63558 110.571 5.77523 110.435 5.96143C110.299 6.14762 110.193 6.375 110.118 6.64355C110.043 6.91211 110.005 7.22184 110.005 7.57275V7.79834C110.005 8.07406 110.043 8.33366 110.118 8.57715C110.197 8.81706 110.31 9.02832 110.457 9.21094C110.607 9.39355 110.788 9.53678 110.999 9.64062C111.214 9.74447 111.457 9.79639 111.729 9.79639C112.08 9.79639 112.378 9.72477 112.621 9.58154C112.865 9.43831 113.078 9.24674 113.26 9.00684L113.862 9.48486C113.736 9.67464 113.577 9.85547 113.384 10.0273C113.19 10.1992 112.952 10.3389 112.669 10.4463C112.39 10.5537 112.059 10.6074 111.676 10.6074ZM118.76 9.37207V2.25H119.759V10.5H118.846L118.76 9.37207ZM114.85 7.65869V7.5459C114.85 7.10189 114.904 6.69906 115.011 6.3374C115.122 5.97217 115.278 5.65885 115.479 5.39746C115.683 5.13607 115.924 4.93555 116.204 4.7959C116.486 4.65267 116.802 4.58105 117.149 4.58105C117.514 4.58105 117.833 4.64551 118.105 4.77441C118.381 4.89974 118.613 5.08415 118.803 5.32764C118.997 5.56755 119.149 5.85758 119.26 6.19775C119.371 6.53792 119.448 6.92285 119.491 7.35254V7.84668C119.451 8.27279 119.374 8.65592 119.26 8.99609C119.149 9.33626 118.997 9.6263 118.803 9.86621C118.613 10.1061 118.381 10.2905 118.105 10.4194C117.829 10.5448 117.507 10.6074 117.138 10.6074C116.798 10.6074 116.486 10.534 116.204 10.3872C115.924 10.2404 115.683 10.0345 115.479 9.76953C115.278 9.50456 115.122 9.19303 115.011 8.83496C114.904 8.47331 114.85 8.08122 114.85 7.65869ZM115.849 7.5459V7.65869C115.849 7.94873 115.878 8.22087 115.935 8.4751C115.996 8.72933 116.089 8.95312 116.214 9.14648C116.34 9.33984 116.499 9.49202 116.692 9.60303C116.886 9.71045 117.117 9.76416 117.385 9.76416C117.715 9.76416 117.985 9.69434 118.196 9.55469C118.411 9.41504 118.583 9.23063 118.712 9.00146C118.841 8.7723 118.941 8.52344 119.013 8.25488V6.96045C118.97 6.76351 118.907 6.57373 118.825 6.39111C118.746 6.20492 118.642 6.0402 118.513 5.89697C118.388 5.75016 118.232 5.63379 118.046 5.54785C117.863 5.46191 117.647 5.41895 117.396 5.41895C117.124 5.41895 116.889 5.47624 116.692 5.59082C116.499 5.70182 116.34 5.85579 116.214 6.05273C116.089 6.24609 115.996 6.47168 115.935 6.72949C115.878 6.98372 115.849 7.25586 115.849 7.5459Z" fill="black"/>
</svg>
