<svg width="140" height="12" viewBox="0 0 140 12" fill="none" xmlns="http://www.w3.org/2000/svg">
<path d="M0 11.27H11V0.27H0V11.27ZM16.6934 8.13672L18.2456 2.67969H18.9976L18.5625 4.80127L16.8921 10.5H16.1455L16.6934 8.13672ZM15.0874 2.67969L16.3228 8.0293L16.6934 10.5H15.9521L14.0562 2.67969H15.0874ZM21.0063 8.02393L22.2148 2.67969H23.2515L21.3608 10.5H20.6196L21.0063 8.02393ZM19.1104 2.67969L20.6196 8.13672L21.1675 10.5H20.4209L18.8096 4.80127L18.3691 2.67969H19.1104ZM25.2441 2.25V10.5H24.2505V2.25H25.2441ZM25.0078 7.37402L24.5942 7.35791C24.5978 6.96045 24.6569 6.59342 24.7715 6.25684C24.8861 5.91667 25.0472 5.62126 25.2549 5.37061C25.4626 5.11995 25.7096 4.9266 25.9961 4.79053C26.2861 4.65088 26.6066 4.58105 26.9575 4.58105C27.244 4.58105 27.5018 4.62044 27.731 4.69922C27.9601 4.77441 28.1553 4.89616 28.3164 5.06445C28.4811 5.23275 28.6064 5.45117 28.6924 5.71973C28.7783 5.9847 28.8213 6.30876 28.8213 6.69189V10.5H27.8223V6.68115C27.8223 6.37679 27.7775 6.1333 27.688 5.95068C27.5985 5.76449 27.4678 5.63021 27.2959 5.54785C27.124 5.46191 26.9128 5.41895 26.6621 5.41895C26.415 5.41895 26.1895 5.47087 25.9854 5.57471C25.7848 5.67855 25.6112 5.82178 25.4644 6.00439C25.3211 6.18701 25.2083 6.39648 25.126 6.63281C25.0472 6.86556 25.0078 7.11263 25.0078 7.37402ZM31.3887 4.68848V10.5H30.3896V4.68848H31.3887ZM30.3145 3.14697C30.3145 2.98584 30.3628 2.84977 30.4595 2.73877C30.5597 2.62777 30.7065 2.57227 30.8999 2.57227C31.0897 2.57227 31.2347 2.62777 31.335 2.73877C31.4388 2.84977 31.4907 2.98584 31.4907 3.14697C31.4907 3.30094 31.4388 3.43343 31.335 3.54443C31.2347 3.65186 31.0897 3.70557 30.8999 3.70557C30.7065 3.70557 30.5597 3.65186 30.4595 3.54443C30.3628 3.43343 30.3145 3.30094 30.3145 3.14697ZM35.417 4.68848V5.45117H32.2749V4.68848H35.417ZM33.3384 3.27588H34.332V9.06055C34.332 9.25749 34.3625 9.40609 34.4233 9.50635C34.4842 9.60661 34.563 9.67285 34.6597 9.70508C34.7563 9.7373 34.8602 9.75342 34.9712 9.75342C35.0535 9.75342 35.1395 9.74626 35.229 9.73193C35.3221 9.71403 35.3919 9.69971 35.4385 9.68896L35.4438 10.5C35.3651 10.5251 35.2612 10.5483 35.1323 10.5698C35.007 10.5949 34.8548 10.6074 34.6758 10.6074C34.4323 10.6074 34.2085 10.5591 34.0044 10.4624C33.8003 10.3657 33.6374 10.2046 33.5156 9.979C33.3975 9.74984 33.3384 9.44189 33.3384 9.05518V3.27588ZM38.9941 10.6074C38.5895 10.6074 38.2225 10.5394 37.8931 10.4033C37.5672 10.2637 37.2861 10.0685 37.0498 9.81787C36.8171 9.56722 36.638 9.27002 36.5127 8.92627C36.3874 8.58252 36.3247 8.20654 36.3247 7.79834V7.57275C36.3247 7.1001 36.3945 6.67936 36.5342 6.31055C36.6738 5.93815 36.8636 5.62305 37.1035 5.36523C37.3434 5.10742 37.6156 4.91227 37.9199 4.77979C38.2243 4.6473 38.5394 4.58105 38.8652 4.58105C39.2806 4.58105 39.6387 4.65267 39.9395 4.7959C40.2438 4.93913 40.4927 5.13965 40.686 5.39746C40.8794 5.65169 41.0226 5.95247 41.1157 6.2998C41.2088 6.64355 41.2554 7.01953 41.2554 7.42773V7.87354H36.9155V7.0625H40.2617V6.9873C40.2474 6.72949 40.1937 6.47884 40.1006 6.23535C40.0111 5.99186 39.8678 5.79134 39.6709 5.63379C39.474 5.47624 39.2054 5.39746 38.8652 5.39746C38.6396 5.39746 38.432 5.4458 38.2422 5.54248C38.0524 5.63558 37.8895 5.77523 37.7534 5.96143C37.6174 6.14762 37.5117 6.375 37.4365 6.64355C37.3613 6.91211 37.3237 7.22184 37.3237 7.57275V7.79834C37.3237 8.07406 37.3613 8.33366 37.4365 8.57715C37.5153 8.81706 37.6281 9.02832 37.7749 9.21094C37.9253 9.39355 38.1061 9.53678 38.3174 9.64062C38.5322 9.74447 38.7757 9.79639 39.0479 9.79639C39.3988 9.79639 39.696 9.72477 39.9395 9.58154C40.1829 9.43831 40.396 9.24674 40.5786 9.00684L41.1802 9.48486C41.0549 9.67464 40.8955 9.85547 40.7021 10.0273C40.5088 10.1992 40.2707 10.3389 39.9878 10.4463C39.7085 10.5537 39.3773 10.6074 38.9941 10.6074ZM48.1787 7.43311H46.0894V6.58984H48.1787C48.5833 6.58984 48.911 6.52539 49.1616 6.39648C49.4123 6.26758 49.5949 6.08854 49.7095 5.85938C49.8276 5.63021 49.8867 5.36882 49.8867 5.0752C49.8867 4.80664 49.8276 4.5542 49.7095 4.31787C49.5949 4.08154 49.4123 3.89176 49.1616 3.74854C48.911 3.60173 48.5833 3.52832 48.1787 3.52832H46.3311V10.5H45.2944V2.67969H48.1787C48.7695 2.67969 49.269 2.78174 49.6772 2.98584C50.0854 3.18994 50.3952 3.47282 50.6064 3.83447C50.8177 4.19255 50.9233 4.60254 50.9233 5.06445C50.9233 5.56576 50.8177 5.99365 50.6064 6.34814C50.3952 6.70264 50.0854 6.97298 49.6772 7.15918C49.269 7.3418 48.7695 7.43311 48.1787 7.43311ZM53.1631 4.68848V10.5H52.1641V4.68848H53.1631ZM52.0889 3.14697C52.0889 2.98584 52.1372 2.84977 52.2339 2.73877C52.3341 2.62777 52.481 2.57227 52.6743 2.57227C52.8641 2.57227 53.0091 2.62777 53.1094 2.73877C53.2132 2.84977 53.2651 2.98584 53.2651 3.14697C53.2651 3.30094 53.2132 3.43343 53.1094 3.54443C53.0091 3.65186 52.8641 3.70557 52.6743 3.70557C52.481 3.70557 52.3341 3.65186 52.2339 3.54443C52.1372 3.43343 52.0889 3.30094 52.0889 3.14697ZM55.8379 2.25V10.5H54.8389V2.25H55.8379ZM59.8447 10.6074C59.4401 10.6074 59.0731 10.5394 58.7437 10.4033C58.4178 10.2637 58.1367 10.0685 57.9004 9.81787C57.6676 9.56722 57.4886 9.27002 57.3633 8.92627C57.238 8.58252 57.1753 8.20654 57.1753 7.79834V7.57275C57.1753 7.1001 57.2451 6.67936 57.3848 6.31055C57.5244 5.93815 57.7142 5.62305 57.9541 5.36523C58.194 5.10742 58.4661 4.91227 58.7705 4.77979C59.0749 4.6473 59.39 4.58105 59.7158 4.58105C60.1312 4.58105 60.4893 4.65267 60.79 4.7959C61.0944 4.93913 61.3433 5.13965 61.5366 5.39746C61.73 5.65169 61.8732 5.95247 61.9663 6.2998C62.0594 6.64355 62.106 7.01953 62.106 7.42773V7.87354H57.7661V7.0625H61.1123V6.9873C61.098 6.72949 61.0443 6.47884 60.9512 6.23535C60.8617 5.99186 60.7184 5.79134 60.5215 5.63379C60.3245 5.47624 60.056 5.39746 59.7158 5.39746C59.4902 5.39746 59.2826 5.4458 59.0928 5.54248C58.903 5.63558 58.7401 5.77523 58.604 5.96143C58.4679 6.14762 58.3623 6.375 58.2871 6.64355C58.2119 6.91211 58.1743 7.22184 58.1743 7.57275V7.79834C58.1743 8.07406 58.2119 8.33366 58.2871 8.57715C58.3659 8.81706 58.4787 9.02832 58.6255 9.21094C58.7759 9.39355 58.9567 9.53678 59.168 9.64062C59.3828 9.74447 59.6263 9.79639 59.8984 9.79639C60.2493 9.79639 60.5465 9.72477 60.79 9.58154C61.0335 9.43831 61.2466 9.24674 61.4292 9.00684L62.0308 9.48486C61.9054 9.67464 61.7461 9.85547 61.5527 10.0273C61.3594 10.1992 61.1213 10.3389 60.8384 10.4463C60.5591 10.5537 60.2279 10.6074 59.8447 10.6074ZM70.8662 8.01318H71.8975C71.8438 8.50732 71.7023 8.94954 71.4731 9.33984C71.244 9.73014 70.9199 10.0399 70.501 10.269C70.082 10.4946 69.5592 10.6074 68.9326 10.6074C68.4743 10.6074 68.0571 10.5215 67.6812 10.3496C67.3088 10.1777 66.9883 9.93424 66.7197 9.61914C66.4512 9.30046 66.2435 8.91911 66.0967 8.4751C65.9535 8.02751 65.8818 7.52979 65.8818 6.98193V6.20312C65.8818 5.65527 65.9535 5.15934 66.0967 4.71533C66.2435 4.26774 66.453 3.8846 66.7251 3.56592C67.0008 3.24723 67.332 3.00195 67.7188 2.83008C68.1055 2.6582 68.5405 2.57227 69.0239 2.57227C69.6147 2.57227 70.1143 2.68327 70.5225 2.90527C70.9307 3.12728 71.2476 3.43522 71.4731 3.8291C71.7023 4.2194 71.8438 4.67236 71.8975 5.18799H70.8662C70.8161 4.82275 70.723 4.50944 70.5869 4.24805C70.4508 3.98307 70.2575 3.77897 70.0068 3.63574C69.7562 3.49251 69.4285 3.4209 69.0239 3.4209C68.6766 3.4209 68.3704 3.48714 68.1055 3.61963C67.8441 3.75212 67.6239 3.9401 67.4448 4.18359C67.2694 4.42708 67.1369 4.71891 67.0474 5.05908C66.9578 5.39925 66.9131 5.77702 66.9131 6.19238V6.98193C66.9131 7.36507 66.9525 7.72493 67.0312 8.06152C67.1136 8.39811 67.2371 8.69352 67.4019 8.94775C67.5666 9.20199 67.776 9.40251 68.0303 9.54932C68.2845 9.69255 68.5853 9.76416 68.9326 9.76416C69.373 9.76416 69.724 9.69434 69.9854 9.55469C70.2467 9.41504 70.4437 9.21452 70.5762 8.95312C70.7122 8.69173 70.8089 8.37842 70.8662 8.01318ZM72.8965 7.65869V7.53516C72.8965 7.11621 72.9574 6.7277 73.0791 6.36963C73.2008 6.00798 73.3763 5.69466 73.6055 5.42969C73.8346 5.16113 74.1121 4.95345 74.438 4.80664C74.7638 4.65625 75.1291 4.58105 75.5337 4.58105C75.9419 4.58105 76.3089 4.65625 76.6348 4.80664C76.9642 4.95345 77.2435 5.16113 77.4727 5.42969C77.7054 5.69466 77.8826 6.00798 78.0044 6.36963C78.1261 6.7277 78.187 7.11621 78.187 7.53516V7.65869C78.187 8.07764 78.1261 8.46615 78.0044 8.82422C77.8826 9.18229 77.7054 9.49561 77.4727 9.76416C77.2435 10.0291 76.966 10.2368 76.6401 10.3872C76.3179 10.534 75.9526 10.6074 75.5444 10.6074C75.1362 10.6074 74.7692 10.534 74.4434 10.3872C74.1175 10.2368 73.8382 10.0291 73.6055 9.76416C73.3763 9.49561 73.2008 9.18229 73.0791 8.82422C72.9574 8.46615 72.8965 8.07764 72.8965 7.65869ZM73.8901 7.53516V7.65869C73.8901 7.94873 73.9242 8.22266 73.9922 8.48047C74.0602 8.7347 74.1623 8.96029 74.2983 9.15723C74.438 9.35417 74.6117 9.50993 74.8193 9.62451C75.027 9.73551 75.2687 9.79102 75.5444 9.79102C75.8166 9.79102 76.0547 9.73551 76.2588 9.62451C76.4665 9.50993 76.6383 9.35417 76.7744 9.15723C76.9105 8.96029 77.0125 8.7347 77.0806 8.48047C77.1522 8.22266 77.188 7.94873 77.188 7.65869V7.53516C77.188 7.2487 77.1522 6.97835 77.0806 6.72412C77.0125 6.46631 76.9087 6.23893 76.769 6.04199C76.633 5.84147 76.4611 5.68392 76.2534 5.56934C76.0493 5.45475 75.8094 5.39746 75.5337 5.39746C75.2616 5.39746 75.0216 5.45475 74.814 5.56934C74.6099 5.68392 74.438 5.84147 74.2983 6.04199C74.1623 6.23893 74.0602 6.46631 73.9922 6.72412C73.9242 6.97835 73.8901 7.2487 73.8901 7.53516ZM82.8599 9.50635V6.51465C82.8599 6.28548 82.8133 6.08675 82.7202 5.91846C82.6307 5.74658 82.4946 5.6141 82.312 5.521C82.1294 5.4279 81.9038 5.38135 81.6353 5.38135C81.3846 5.38135 81.1644 5.42432 80.9746 5.51025C80.7884 5.59619 80.6416 5.70898 80.5342 5.84863C80.4303 5.98828 80.3784 6.13867 80.3784 6.2998H79.3848C79.3848 6.09212 79.4385 5.88623 79.5459 5.68213C79.6533 5.47803 79.8073 5.29362 80.0078 5.12891C80.2119 4.96061 80.4554 4.82812 80.7383 4.73145C81.0247 4.63118 81.3434 4.58105 81.6943 4.58105C82.1169 4.58105 82.4893 4.65267 82.8115 4.7959C83.1374 4.93913 83.3916 5.15576 83.5742 5.4458C83.7604 5.73226 83.8535 6.09212 83.8535 6.52539V9.23242C83.8535 9.42578 83.8696 9.63167 83.9019 9.8501C83.9377 10.0685 83.9896 10.2565 84.0576 10.4141V10.5H83.021C82.9709 10.3854 82.9315 10.2332 82.9028 10.0435C82.8742 9.8501 82.8599 9.67106 82.8599 9.50635ZM83.0317 6.97656L83.0425 7.6748H82.0381C81.7552 7.6748 81.5028 7.69808 81.2808 7.74463C81.0588 7.7876 80.8726 7.85384 80.7222 7.94336C80.5718 8.03288 80.4572 8.14567 80.3784 8.28174C80.2996 8.41423 80.2603 8.56999 80.2603 8.74902C80.2603 8.93164 80.3014 9.09814 80.3838 9.24854C80.4661 9.39893 80.5897 9.51888 80.7544 9.6084C80.9227 9.69434 81.1286 9.7373 81.3721 9.7373C81.6764 9.7373 81.945 9.67285 82.1777 9.54395C82.4105 9.41504 82.5949 9.25749 82.731 9.07129C82.8706 8.88509 82.9458 8.70426 82.9565 8.52881L83.3809 9.00684C83.3558 9.15723 83.2878 9.32373 83.1768 9.50635C83.0658 9.68896 82.9172 9.86442 82.731 10.0327C82.5483 10.1974 82.3299 10.3353 82.0757 10.4463C81.825 10.5537 81.5422 10.6074 81.2271 10.6074C80.8332 10.6074 80.4876 10.5304 80.1904 10.3765C79.8968 10.2225 79.6676 10.0166 79.5029 9.75879C79.3418 9.4974 79.2612 9.20557 79.2612 8.8833C79.2612 8.57178 79.3221 8.29785 79.4438 8.06152C79.5656 7.82161 79.741 7.62288 79.9702 7.46533C80.1994 7.3042 80.4751 7.18245 80.7974 7.1001C81.1196 7.01774 81.4795 6.97656 81.877 6.97656H83.0317ZM87.8496 4.68848V5.45117H84.7075V4.68848H87.8496ZM85.771 3.27588H86.7646V9.06055C86.7646 9.25749 86.7951 9.40609 86.856 9.50635C86.9168 9.60661 86.9956 9.67285 87.0923 9.70508C87.189 9.7373 87.2928 9.75342 87.4038 9.75342C87.4862 9.75342 87.5721 9.74626 87.6616 9.73193C87.7547 9.71403 87.8245 9.69971 87.8711 9.68896L87.8765 10.5C87.7977 10.5251 87.6938 10.5483 87.5649 10.5698C87.4396 10.5949 87.2874 10.6074 87.1084 10.6074C86.8649 10.6074 86.6411 10.5591 86.437 10.4624C86.2329 10.3657 86.07 10.2046 85.9482 9.979C85.8301 9.74984 85.771 9.44189 85.771 9.05518V3.27588ZM93.2261 10.5H92.2324V4.07617C92.2324 3.65723 92.3076 3.30452 92.458 3.01807C92.612 2.72803 92.8322 2.5096 93.1187 2.36279C93.4051 2.2124 93.7453 2.13721 94.1392 2.13721C94.2537 2.13721 94.3683 2.14437 94.4829 2.15869C94.6011 2.17301 94.7157 2.1945 94.8267 2.22314L94.7729 3.03418C94.6978 3.01628 94.6118 3.00374 94.5151 2.99658C94.422 2.98942 94.3289 2.98584 94.2358 2.98584C94.0246 2.98584 93.842 3.02881 93.688 3.11475C93.5376 3.1971 93.423 3.31885 93.3442 3.47998C93.2655 3.64111 93.2261 3.83984 93.2261 4.07617V10.5ZM94.4614 4.68848V5.45117H91.314V4.68848H94.4614ZM95.3047 7.65869V7.53516C95.3047 7.11621 95.3656 6.7277 95.4873 6.36963C95.609 6.00798 95.7845 5.69466 96.0137 5.42969C96.2428 5.16113 96.5203 4.95345 96.8462 4.80664C97.172 4.65625 97.5373 4.58105 97.9419 4.58105C98.3501 4.58105 98.7171 4.65625 99.043 4.80664C99.3724 4.95345 99.6517 5.16113 99.8809 5.42969C100.114 5.69466 100.291 6.00798 100.413 6.36963C100.534 6.7277 100.595 7.11621 100.595 7.53516V7.65869C100.595 8.07764 100.534 8.46615 100.413 8.82422C100.291 9.18229 100.114 9.49561 99.8809 9.76416C99.6517 10.0291 99.3742 10.2368 99.0483 10.3872C98.7261 10.534 98.3608 10.6074 97.9526 10.6074C97.5444 10.6074 97.1774 10.534 96.8516 10.3872C96.5257 10.2368 96.2464 10.0291 96.0137 9.76416C95.7845 9.49561 95.609 9.18229 95.4873 8.82422C95.3656 8.46615 95.3047 8.07764 95.3047 7.65869ZM96.2983 7.53516V7.65869C96.2983 7.94873 96.3324 8.22266 96.4004 8.48047C96.4684 8.7347 96.5705 8.96029 96.7065 9.15723C96.8462 9.35417 97.0199 9.50993 97.2275 9.62451C97.4352 9.73551 97.6769 9.79102 97.9526 9.79102C98.2248 9.79102 98.4629 9.73551 98.667 9.62451C98.8747 9.50993 99.0465 9.35417 99.1826 9.15723C99.3187 8.96029 99.4207 8.7347 99.4888 8.48047C99.5604 8.22266 99.5962 7.94873 99.5962 7.65869V7.53516C99.5962 7.2487 99.5604 6.97835 99.4888 6.72412C99.4207 6.46631 99.3169 6.23893 99.1772 6.04199C99.0412 5.84147 98.8693 5.68392 98.6616 5.56934C98.4575 5.45475 98.2176 5.39746 97.9419 5.39746C97.6698 5.39746 97.4299 5.45475 97.2222 5.56934C97.0181 5.68392 96.8462 5.84147 96.7065 6.04199C96.5705 6.23893 96.4684 6.46631 96.4004 6.72412C96.3324 6.97835 96.2983 7.2487 96.2983 7.53516ZM102.835 5.60156V10.5H101.841V4.68848H102.808L102.835 5.60156ZM104.65 4.65625L104.645 5.58008C104.563 5.56217 104.484 5.55143 104.409 5.54785C104.337 5.54069 104.255 5.53711 104.162 5.53711C103.932 5.53711 103.73 5.57292 103.555 5.64453C103.379 5.71615 103.231 5.81641 103.109 5.94531C102.987 6.07422 102.89 6.22819 102.819 6.40723C102.751 6.58268 102.706 6.77604 102.685 6.9873L102.405 7.14844C102.405 6.79753 102.439 6.4681 102.507 6.16016C102.579 5.85221 102.688 5.58008 102.835 5.34375C102.982 5.10384 103.168 4.91764 103.394 4.78516C103.623 4.64909 103.895 4.58105 104.21 4.58105C104.282 4.58105 104.364 4.59001 104.457 4.60791C104.55 4.62223 104.615 4.63835 104.65 4.65625ZM113.19 9.65674V10.5H109.28V9.65674H113.19ZM109.484 2.67969V10.5H108.448V2.67969H109.484ZM117.654 9.50635V6.51465C117.654 6.28548 117.607 6.08675 117.514 5.91846C117.425 5.74658 117.289 5.6141 117.106 5.521C116.923 5.4279 116.698 5.38135 116.429 5.38135C116.179 5.38135 115.958 5.42432 115.769 5.51025C115.582 5.59619 115.436 5.70898 115.328 5.84863C115.224 5.98828 115.172 6.13867 115.172 6.2998H114.179C114.179 6.09212 114.232 5.88623 114.34 5.68213C114.447 5.47803 114.601 5.29362 114.802 5.12891C115.006 4.96061 115.249 4.82812 115.532 4.73145C115.819 4.63118 116.137 4.58105 116.488 4.58105C116.911 4.58105 117.283 4.65267 117.605 4.7959C117.931 4.93913 118.186 5.15576 118.368 5.4458C118.554 5.73226 118.647 6.09212 118.647 6.52539V9.23242C118.647 9.42578 118.664 9.63167 118.696 9.8501C118.732 10.0685 118.784 10.2565 118.852 10.4141V10.5H117.815C117.765 10.3854 117.725 10.2332 117.697 10.0435C117.668 9.8501 117.654 9.67106 117.654 9.50635ZM117.826 6.97656L117.836 7.6748H116.832C116.549 7.6748 116.297 7.69808 116.075 7.74463C115.853 7.7876 115.667 7.85384 115.516 7.94336C115.366 8.03288 115.251 8.14567 115.172 8.28174C115.094 8.41423 115.054 8.56999 115.054 8.74902C115.054 8.93164 115.095 9.09814 115.178 9.24854C115.26 9.39893 115.384 9.51888 115.548 9.6084C115.717 9.69434 115.923 9.7373 116.166 9.7373C116.47 9.7373 116.739 9.67285 116.972 9.54395C117.204 9.41504 117.389 9.25749 117.525 9.07129C117.665 8.88509 117.74 8.70426 117.75 8.52881L118.175 9.00684C118.15 9.15723 118.082 9.32373 117.971 9.50635C117.86 9.68896 117.711 9.86442 117.525 10.0327C117.342 10.1974 117.124 10.3353 116.87 10.4463C116.619 10.5537 116.336 10.6074 116.021 10.6074C115.627 10.6074 115.282 10.5304 114.984 10.3765C114.691 10.2225 114.462 10.0166 114.297 9.75879C114.136 9.4974 114.055 9.20557 114.055 8.8833C114.055 8.57178 114.116 8.29785 114.238 8.06152C114.36 7.82161 114.535 7.62288 114.764 7.46533C114.993 7.3042 115.269 7.18245 115.591 7.1001C115.914 7.01774 116.273 6.97656 116.671 6.97656H117.826ZM123.874 9.37207V2.25H124.873V10.5H123.959L123.874 9.37207ZM119.963 7.65869V7.5459C119.963 7.10189 120.017 6.69906 120.125 6.3374C120.236 5.97217 120.391 5.65885 120.592 5.39746C120.796 5.13607 121.038 4.93555 121.317 4.7959C121.6 4.65267 121.915 4.58105 122.262 4.58105C122.627 4.58105 122.946 4.64551 123.218 4.77441C123.494 4.89974 123.727 5.08415 123.917 5.32764C124.11 5.56755 124.262 5.85758 124.373 6.19775C124.484 6.53792 124.561 6.92285 124.604 7.35254V7.84668C124.565 8.27279 124.488 8.65592 124.373 8.99609C124.262 9.33626 124.11 9.6263 123.917 9.86621C123.727 10.1061 123.494 10.2905 123.218 10.4194C122.943 10.5448 122.62 10.6074 122.251 10.6074C121.911 10.6074 121.6 10.534 121.317 10.3872C121.038 10.2404 120.796 10.0345 120.592 9.76953C120.391 9.50456 120.236 9.19303 120.125 8.83496C120.017 8.47331 119.963 8.08122 119.963 7.65869ZM120.962 7.5459V7.65869C120.962 7.94873 120.991 8.22087 121.048 8.4751C121.109 8.72933 121.202 8.95312 121.328 9.14648C121.453 9.33984 121.612 9.49202 121.806 9.60303C121.999 9.71045 122.23 9.76416 122.499 9.76416C122.828 9.76416 123.098 9.69434 123.31 9.55469C123.524 9.41504 123.696 9.23063 123.825 9.00146C123.954 8.7723 124.054 8.52344 124.126 8.25488V6.96045C124.083 6.76351 124.02 6.57373 123.938 6.39111C123.859 6.20492 123.755 6.0402 123.626 5.89697C123.501 5.75016 123.345 5.63379 123.159 5.54785C122.977 5.46191 122.76 5.41895 122.509 5.41895C122.237 5.41895 122.003 5.47624 121.806 5.59082C121.612 5.70182 121.453 5.85579 121.328 6.05273C121.202 6.24609 121.109 6.47168 121.048 6.72949C120.991 6.98372 120.962 7.25586 120.962 7.5459ZM127.499 4.68848V10.5H126.5V4.68848H127.499ZM126.425 3.14697C126.425 2.98584 126.473 2.84977 126.57 2.73877C126.67 2.62777 126.817 2.57227 127.01 2.57227C127.2 2.57227 127.345 2.62777 127.445 2.73877C127.549 2.84977 127.601 2.98584 127.601 3.14697C127.601 3.30094 127.549 3.43343 127.445 3.54443C127.345 3.65186 127.2 3.70557 127.01 3.70557C126.817 3.70557 126.67 3.65186 126.57 3.54443C126.473 3.43343 126.425 3.30094 126.425 3.14697ZM131.506 10.6074C131.101 10.6074 130.734 10.5394 130.405 10.4033C130.079 10.2637 129.798 10.0685 129.562 9.81787C129.329 9.56722 129.15 9.27002 129.024 8.92627C128.899 8.58252 128.836 8.20654 128.836 7.79834V7.57275C128.836 7.1001 128.906 6.67936 129.046 6.31055C129.186 5.93815 129.375 5.62305 129.615 5.36523C129.855 5.10742 130.127 4.91227 130.432 4.77979C130.736 4.6473 131.051 4.58105 131.377 4.58105C131.792 4.58105 132.15 4.65267 132.451 4.7959C132.756 4.93913 133.004 5.13965 133.198 5.39746C133.391 5.65169 133.534 5.95247 133.627 6.2998C133.721 6.64355 133.767 7.01953 133.767 7.42773V7.87354H129.427V7.0625H132.773V6.9873C132.759 6.72949 132.705 6.47884 132.612 6.23535C132.523 5.99186 132.38 5.79134 132.183 5.63379C131.986 5.47624 131.717 5.39746 131.377 5.39746C131.151 5.39746 130.944 5.4458 130.754 5.54248C130.564 5.63558 130.401 5.77523 130.265 5.96143C130.129 6.14762 130.023 6.375 129.948 6.64355C129.873 6.91211 129.835 7.22184 129.835 7.57275V7.79834C129.835 8.07406 129.873 8.33366 129.948 8.57715C130.027 8.81706 130.14 9.02832 130.287 9.21094C130.437 9.39355 130.618 9.53678 130.829 9.64062C131.044 9.74447 131.287 9.79639 131.56 9.79639C131.91 9.79639 132.208 9.72477 132.451 9.58154C132.695 9.43831 132.908 9.24674 133.09 9.00684L133.692 9.48486C133.567 9.67464 133.407 9.85547 133.214 10.0273C133.021 10.1992 132.782 10.3389 132.5 10.4463C132.22 10.5537 131.889 10.6074 131.506 10.6074ZM138.311 8.9585C138.311 8.81527 138.279 8.68278 138.214 8.56104C138.153 8.43571 138.026 8.32292 137.833 8.22266C137.643 8.11882 137.357 8.0293 136.974 7.9541C136.651 7.88607 136.36 7.8055 136.098 7.7124C135.84 7.6193 135.62 7.50651 135.438 7.37402C135.258 7.24154 135.121 7.08577 135.024 6.90674C134.927 6.7277 134.879 6.51823 134.879 6.27832C134.879 6.04915 134.929 5.83252 135.029 5.62842C135.133 5.42432 135.278 5.24349 135.464 5.08594C135.654 4.92839 135.882 4.80485 136.146 4.71533C136.411 4.62581 136.707 4.58105 137.033 4.58105C137.498 4.58105 137.896 4.66341 138.225 4.82812C138.555 4.99284 138.807 5.21305 138.982 5.48877C139.158 5.7609 139.246 6.06348 139.246 6.39648H138.252C138.252 6.23535 138.204 6.07959 138.107 5.9292C138.014 5.77523 137.876 5.64811 137.693 5.54785C137.514 5.44759 137.294 5.39746 137.033 5.39746C136.757 5.39746 136.533 5.44043 136.361 5.52637C136.193 5.60872 136.069 5.71436 135.991 5.84326C135.916 5.97217 135.878 6.10824 135.878 6.25146C135.878 6.35889 135.896 6.45557 135.932 6.5415C135.971 6.62386 136.039 6.70085 136.136 6.77246C136.232 6.84049 136.368 6.90495 136.544 6.96582C136.719 7.02669 136.943 7.08757 137.215 7.14844C137.692 7.25586 138.084 7.38477 138.392 7.53516C138.7 7.68555 138.929 7.86995 139.079 8.08838C139.229 8.3068 139.305 8.57178 139.305 8.8833C139.305 9.13753 139.251 9.37028 139.144 9.58154C139.04 9.79281 138.888 9.97542 138.687 10.1294C138.49 10.2798 138.254 10.3979 137.978 10.4839C137.706 10.5662 137.4 10.6074 137.06 10.6074C136.548 10.6074 136.114 10.5161 135.76 10.3335C135.405 10.1509 135.137 9.91455 134.954 9.62451C134.771 9.33447 134.68 9.02832 134.68 8.70605H135.679C135.694 8.97819 135.772 9.19482 135.916 9.35596C136.059 9.51351 136.234 9.6263 136.442 9.69434C136.65 9.75879 136.855 9.79102 137.06 9.79102C137.332 9.79102 137.559 9.75521 137.742 9.68359C137.928 9.61198 138.069 9.51351 138.166 9.38818C138.263 9.26286 138.311 9.11963 138.311 8.9585Z" fill="black"/>
</svg>
