<svg width="44" height="44" viewBox="0 0 44 44" fill="none" xmlns="http://www.w3.org/2000/svg">
<path d="M41.2517 22.4277C41.2517 20.8449 41.1207 19.6899 40.837 18.4922H22.3945V25.636H33.2199C33.0017 27.4114 31.823 30.0849 29.2039 31.8815L29.1672 32.1208L34.9985 36.5477L35.4024 36.5872C39.1127 33.2292 41.2517 28.2882 41.2517 22.4277Z" fill="#4285F4"/>
<path d="M22.3953 41.2515C27.6988 41.2515 32.151 39.5403 35.4032 36.5886L29.2047 31.8829C27.546 33.0166 25.3197 33.8079 22.3953 33.8079C17.2009 33.8079 12.7922 30.4499 11.2206 25.8086L10.9903 25.8277L4.92695 30.4264L4.84766 30.6424C8.07778 36.9307 14.7127 41.2515 22.3953 41.2515Z" fill="#34A853"/>
<path d="M11.2182 25.8077C10.8035 24.61 10.5635 23.3266 10.5635 22.0005C10.5635 20.6743 10.8035 19.391 11.1963 18.1933L11.1854 17.9381L5.04604 13.2656L4.84518 13.3593C3.5139 15.9688 2.75 18.8991 2.75 22.0005C2.75 25.1018 3.5139 28.0321 4.84518 30.6416L11.2182 25.8077Z" fill="#FBBC05"/>
<path d="M22.3954 10.1933C26.0838 10.1933 28.5719 11.7547 29.9906 13.0595L35.5342 7.755C32.1296 4.65362 27.6989 2.75 22.3954 2.75C14.7127 2.75 8.07779 7.07053 4.84766 13.3588L11.1988 18.1928C12.7922 13.5514 17.2009 10.1933 22.3954 10.1933Z" fill="#EB4335"/>
</svg>
