<svg width="15.75" height="14" viewBox="0 0 16 14" fill="none" xmlns="http://www.w3.org/2000/svg">
<g clip-path="url(#clip0_1_4269)">
<path d="M7.58559 0.108691C7.74965 -0.0362305 7.99848 -0.0362305 8.16528 0.108691L15.6028 6.67119C15.7832 6.82979 15.8024 7.10869 15.6411 7.28916C15.4797 7.46963 15.2036 7.48877 15.0231 7.32744L14.0004 6.4251V11.8118C14.0004 13.0204 13.0215 13.9993 11.8129 13.9993H3.93794C2.72934 13.9993 1.75044 13.0204 1.75044 11.8118V6.4251L0.727779 7.32744C0.547311 7.48604 0.268404 7.46963 0.109811 7.28916C-0.0487832 7.10869 -0.0323769 6.82979 0.148092 6.67119L7.58559 0.108691ZM2.62544 5.65127V11.8118C2.62544 12.5364 3.21333 13.1243 3.93794 13.1243H11.8129C12.5375 13.1243 13.1254 12.5364 13.1254 11.8118V5.65127L7.87544 1.01924L2.62544 5.65127Z" fill="white"/>
</g>
<defs>
<clipPath id="clip0_1_4269">
<rect width="15.75" height="14" fill="white"/>
</clipPath>
</defs>
</svg>
