<svg width="31" height="25" viewBox="0 0 31 25" fill="none" xmlns="http://www.w3.org/2000/svg">
<path d="M28.2266 12.5C30.5703 10.1562 30.5703 6.35938 28.2266 4.01562C25.8828 1.67188 22.0859 1.67188 19.7422 4.01562L18.6828 5.075C18.3922 5.36562 18.3922 5.84375 18.6828 6.13437C18.9734 6.425 19.4516 6.425 19.7422 6.13437L20.8016 5.075C22.5594 3.31719 25.4094 3.31719 27.1672 5.075C28.925 6.83281 28.925 9.68281 27.1672 11.4406L21.3266 17.2766C19.5734 19.0297 16.7281 19.0297 14.9703 17.2766C13.3016 15.6078 13.2078 12.9359 14.75 11.1547L14.9984 10.8687C15.2703 10.5547 15.2375 10.0813 14.9234 9.80938C14.6094 9.5375 14.1359 9.57031 13.8641 9.88437L13.6156 10.1703C11.5578 12.5469 11.6844 16.1094 13.9062 18.3312C16.2453 20.6703 20.0422 20.6703 22.3812 18.3312L28.2266 12.5ZM2.77344 12.5C0.429688 14.8438 0.429688 18.6406 2.77344 20.9844C5.11719 23.3281 8.91406 23.3281 11.2578 20.9844L12.3172 19.925C12.6078 19.6344 12.6078 19.1562 12.3172 18.8656C12.0266 18.575 11.5484 18.575 11.2578 18.8656L10.1984 19.925C8.44062 21.6828 5.59062 21.6828 3.83281 19.925C2.075 18.1672 2.075 15.3172 3.83281 13.5594L9.67344 7.72344C11.4266 5.97031 14.2719 5.97031 16.0297 7.72344C17.6984 9.39219 17.7922 12.0641 16.25 13.8453L16.0016 14.1312C15.7297 14.4453 15.7625 14.9187 16.0766 15.1906C16.3906 15.4625 16.8641 15.4297 17.1359 15.1156L17.3844 14.8297C19.4422 12.4531 19.3156 8.89063 17.0938 6.66875C14.7453 4.32031 10.9531 4.32031 8.60938 6.65937L2.77344 12.5Z" fill="#374151"/>
</svg>
