<svg width="43" height="30" viewBox="0 0 43 30" fill="none" xmlns="http://www.w3.org/2000/svg">
<path fill-rule="evenodd" clip-rule="evenodd" d="M4.6445 19.7843C4.6445 21.5089 5.00494 22.833 5.47597 23.634C6.09353 24.6833 7.01466 25.1278 7.9537 25.1278C9.16497 25.1278 10.273 24.8121 12.4084 21.71C13.6142 19.9572 14.9716 17.7059 16.1427 15.7635C16.6331 14.9502 17.0907 14.1912 17.491 13.5455L19.3192 10.595C18.4265 9.25968 17.6585 8.24338 17.1064 7.62726C16.0014 6.39424 14.5809 4.90533 12.3141 4.90521C10.4793 4.90521 8.92117 6.25754 7.61721 8.32617C5.7735 11.2492 4.6445 15.6032 4.6445 19.7843ZM0 19.61C0 21.934 0.382343 24.0091 1.15913 25.6816C1.2702 25.9206 1.38914 26.1513 1.5163 26.3733C2.76194 28.5534 4.77311 30 7.9537 30C10.6348 30 12.6715 28.7356 15.0566 25.3995C16.4174 23.4942 17.1067 22.3397 19.8282 17.2712L21.183 14.7503L21.5156 14.1314C21.6244 14.3186 21.7338 14.5087 21.8436 14.7015L25.7002 21.4681C26.9967 23.7455 28.6819 26.279 30.1234 27.7052C31.9986 29.5633 33.6942 30 35.6083 30C35.8072 30 36.0012 29.9928 36.1898 29.9791C38.9203 29.7794 40.5784 28.1822 41.4568 26.5837C42.4288 24.8167 43 22.5801 43 19.5362C43 14.4157 41.7798 9.45397 39.2661 5.51466C36.9693 1.91781 33.9681 0 30.8174 0C28.9408 0 27.0762 0.879589 25.3475 2.46287C24.1791 3.53322 23.0931 4.88429 22.0863 6.31298C20.8471 4.66518 19.6948 3.40937 18.5779 2.45178C16.459 0.634649 14.4299 0 12.3889 0C8.86442 0 5.79116 2.41096 3.6619 5.85863C1.26197 9.74603 0 14.7801 0 19.61ZM26.4478 13.1026C25.6599 11.7241 24.912 10.4843 24.1965 9.36892C24.3239 9.1614 24.4508 8.9588 24.5774 8.76124C26.5856 5.62465 28.3726 3.86548 30.5931 3.86548C32.6463 3.86548 34.5125 5.29164 35.9524 7.62562C37.9816 10.9162 38.9028 15.5215 38.9028 19.6712C38.9028 22.5832 38.2446 25.1276 35.6086 25.1278C34.5692 25.1278 33.769 24.6942 32.6265 23.2397C31.7383 22.1073 30.2206 19.7058 27.5529 15.0377L26.4478 13.1026Z" fill="#1170FF"/>
</svg>
