<svg width="25" height="35" viewBox="0 0 25 35" fill="none" xmlns="http://www.w3.org/2000/svg">
<g clip-path="url(#clip0_1_2430)">
<path d="M9.78594 18.4006L10.8453 19.46L15.3406 23.9553L16.4 25.0146L17.2156 25.8303C17.5063 26.1209 17.9844 26.1209 18.275 25.8303C18.5656 25.5396 18.5656 25.0615 18.275 24.7709L17.4594 23.9553L18.5188 22.8959L23.1266 18.2881C24.9547 16.46 24.9547 13.4975 23.1266 11.674C21.2984 9.85059 18.3359 9.8459 16.5125 11.674L11.9047 16.2818L10.8453 17.3412L10.0297 16.5256C9.73906 16.235 9.26094 16.235 8.97031 16.5256C8.67969 16.8162 8.67969 17.2943 8.97031 17.585L9.78594 18.4006ZM11.9094 18.4006L17.5719 12.7381C18.8141 11.4959 20.825 11.4959 22.0672 12.7381C23.3094 13.9803 23.3094 15.9912 22.0672 17.2334L16.4047 22.8959L11.9094 18.4006ZM9.27969 21.335C9.57031 21.0443 9.57031 20.5662 9.27969 20.2756C8.98906 19.985 8.51094 19.985 8.22031 20.2756L3.09688 25.3943C2.39375 26.0975 2 27.0537 2 28.0475V29.9787L0.678125 32.2943C0.560938 32.5006 0.5 32.7303 0.5 32.9646C0.5 33.7053 1.1 34.3053 1.84063 34.3053C2.075 34.3053 2.30469 34.2443 2.50625 34.1271L4.82188 32.8053H6.75313C7.74688 32.8053 8.70313 32.4115 9.40625 31.7084L14.5297 26.585C14.8203 26.2943 14.8203 25.8162 14.5297 25.5256C14.2391 25.235 13.7609 25.235 13.4703 25.5256L8.34688 30.6443C7.925 31.0662 7.35313 31.3053 6.75781 31.3053H4.625H4.42813L4.25469 31.4037L2.26719 32.5381L3.40156 30.5506L3.5 30.3771V30.1803V28.0475C3.5 27.4521 3.73906 26.8803 4.16094 26.4584L9.27969 21.335Z" fill="black"/>
</g>
<defs>
<clipPath id="clip0_1_2430">
<rect width="24" height="24" fill="white" transform="translate(0.5 10.3047)"/>
</clipPath>
</defs>
</svg>
