<svg width="13" height="15" viewBox="0 0 13 15" fill="none" xmlns="http://www.w3.org/2000/svg">
<g clip-path="url(#clip0_1_11778)">
<path d="M4.375 3.16797V4.04297H7.875V3.16797C7.875 2.20273 7.09023 1.41797 6.125 1.41797C5.15977 1.41797 4.375 2.20273 4.375 3.16797ZM3.5 4.91797H1.3125C1.07188 4.91797 0.875 5.11484 0.875 5.35547V11.918C0.875 12.8832 1.65977 13.668 2.625 13.668H9.625C10.5902 13.668 11.375 12.8832 11.375 11.918V5.35547C11.375 5.11484 11.1781 4.91797 10.9375 4.91797H8.75V7.10547C8.75 7.34609 8.55313 7.54297 8.3125 7.54297C8.07188 7.54297 7.875 7.34609 7.875 7.10547V4.91797H4.375V7.10547C4.375 7.34609 4.17813 7.54297 3.9375 7.54297C3.69688 7.54297 3.5 7.34609 3.5 7.10547V4.91797ZM3.5 4.04297V3.16797C3.5 1.71875 4.67578 0.542969 6.125 0.542969C7.57422 0.542969 8.75 1.71875 8.75 3.16797V4.04297H10.9375C11.6621 4.04297 12.25 4.63086 12.25 5.35547V11.918C12.25 13.3672 11.0742 14.543 9.625 14.543H2.625C1.17578 14.543 0 13.3672 0 11.918V5.35547C0 4.63086 0.587891 4.04297 1.3125 4.04297H3.5Z" fill="white"/>
</g>
<defs>
<clipPath id="clip0_1_11778">
<rect width="12.25" height="14" fill="white" transform="translate(0 0.542969)"/>
</clipPath>
</defs>
</svg>
