<svg width="13" height="15" viewBox="0 0 14 15" fill="none" xmlns="http://www.w3.org/2000/svg">
<path d="M5.21172 2.63984C5.55078 1.99727 6.22617 1.5625 7 1.5625C7.77383 1.5625 8.44922 1.99727 8.78828 2.63984C8.88672 2.82578 9.10273 2.91602 9.30234 2.85312C9.99688 2.63984 10.7816 2.80938 11.3285 3.35625C11.8754 3.90313 12.0449 4.68789 11.8316 5.38242C11.7688 5.58203 11.859 5.79805 12.0449 5.89648C12.6902 6.23828 13.125 6.91367 13.125 7.6875C13.125 8.46133 12.6902 9.13672 12.0477 9.47578C11.8617 9.57422 11.7715 9.79023 11.8344 9.98984C12.0477 10.6844 11.8781 11.4691 11.3313 12.016C10.7844 12.5629 9.99961 12.7324 9.30508 12.5191C9.10547 12.4563 8.88945 12.5465 8.79102 12.7324C8.44922 13.3777 7.77383 13.8125 7 13.8125C6.22617 13.8125 5.55078 13.3777 5.21172 12.7352C5.11328 12.5492 4.89727 12.459 4.69766 12.5219C4.00312 12.7352 3.21836 12.5656 2.67148 12.0188C2.12461 11.4719 1.95508 10.6871 2.16836 9.99258C2.23125 9.79297 2.14102 9.57695 1.95508 9.47852C1.30977 9.13672 0.875 8.46133 0.875 7.6875C0.875 6.91367 1.30977 6.23828 1.95234 5.89922C2.13828 5.80078 2.22852 5.58477 2.16562 5.38516C1.95234 4.69062 2.12188 3.90586 2.66875 3.35898C3.21563 2.81211 4.00039 2.64258 4.69492 2.85586C4.89453 2.91875 5.11055 2.82852 5.20898 2.64258L5.21172 2.63984ZM7 0.6875C6.01289 0.6875 5.14062 1.18242 4.61836 1.93437C3.71602 1.77031 2.75078 2.03828 2.05078 2.73828C1.35078 3.43828 1.08555 4.40352 1.24687 5.30586C0.494922 5.82812 0 6.70039 0 7.6875C0 8.67461 0.494922 9.54687 1.24687 10.0691C1.08281 10.9715 1.35078 11.9367 2.05078 12.6367C2.75078 13.3367 3.71602 13.602 4.61836 13.4406C5.14062 14.1926 6.01289 14.6875 7 14.6875C7.98711 14.6875 8.85937 14.1926 9.38164 13.4406C10.284 13.6047 11.2492 13.3367 11.9492 12.6367C12.6492 11.9367 12.9145 10.9715 12.7531 10.0691C13.5051 9.54687 14 8.67461 14 7.6875C14 6.70039 13.5051 5.82812 12.7531 5.30586C12.9172 4.40352 12.6492 3.43828 11.9492 2.73828C11.2492 2.03828 10.284 1.77305 9.38164 1.93437C8.85937 1.18242 7.98711 0.6875 7 0.6875ZM7.46211 4.52656C7.46211 4.28594 7.26523 4.08906 7.02461 4.08906C6.78398 4.08906 6.58711 4.28594 6.58711 4.52656V5.09531C6.32734 5.13633 6.06211 5.22109 5.82969 5.36055C5.44414 5.5875 5.12695 5.98125 5.12969 6.54727C5.13242 7.0832 5.44141 7.425 5.79688 7.63828C6.11133 7.82695 6.51055 7.94727 6.84687 8.04844L6.89336 8.06211C7.2707 8.17695 7.57148 8.27266 7.7875 8.40664C7.97617 8.52422 8.0418 8.63633 8.04453 8.79766C8.04727 9.01914 7.95156 9.15859 7.78477 9.2625C7.59883 9.38008 7.32266 9.44023 7.03828 9.43203C6.67187 9.42109 6.33281 9.30352 5.91992 9.16406C5.85156 9.13945 5.77773 9.11484 5.70391 9.09023C5.47422 9.01367 5.22812 9.13672 5.15156 9.36641C5.075 9.59609 5.19805 9.84219 5.42773 9.91875C5.48789 9.93789 5.55352 9.95977 5.61641 9.98438C5.90625 10.0855 6.23711 10.1977 6.58437 10.2605V10.843C6.58437 11.0836 6.78125 11.2805 7.02187 11.2805C7.2625 11.2805 7.45937 11.0836 7.45937 10.843V10.2852C7.73281 10.2441 8.00625 10.1594 8.24414 10.009C8.63516 9.76563 8.925 9.35547 8.9168 8.78945C8.90859 8.24805 8.60781 7.89531 8.24961 7.66836C7.92148 7.46055 7.50039 7.33477 7.15586 7.23086L7.14492 7.22813C6.76484 7.11328 6.46133 7.02031 6.24805 6.8918C6.05938 6.77695 6.00469 6.67852 6.00469 6.54453C6.00469 6.35859 6.09219 6.22188 6.27539 6.11523C6.475 5.99766 6.75391 5.9375 7.01641 5.94023C7.32813 5.9457 7.66445 6.01406 8.00352 6.1043C8.23594 6.16719 8.47656 6.02773 8.53945 5.79531C8.60234 5.56289 8.46289 5.32227 8.23047 5.25938C7.99258 5.19648 7.73008 5.13633 7.46211 5.10078V4.52656Z" fill="white"/>
</svg>
