<svg width="20" height="20" viewBox="0 0 20 20" fill="none" xmlns="http://www.w3.org/2000/svg">
<path d="M20 3.57509C20 5.54787 18.4018 7.14573 16.4286 7.14573C15.4062 7.14573 14.4821 6.71725 13.8348 6.0299L7.09375 9.39969C7.12946 9.59607 7.14286 9.79692 7.14286 10.0022C7.14286 10.2075 7.125 10.4084 7.09375 10.6048L13.8348 13.9746C14.4866 13.2872 15.4062 12.8587 16.4286 12.8587C18.4018 12.8587 20 14.4566 20 16.4294C20 18.4021 18.4018 20 16.4286 20C14.4554 20 12.8571 18.4021 12.8571 16.4294C12.8571 15.9964 12.933 15.5813 13.0759 15.193L6.57143 11.9438C5.93304 12.9257 4.83036 13.5729 3.57143 13.5729C1.59821 13.5729 0 11.975 0 10.0022C0 8.02946 1.59821 6.4316 3.57143 6.4316C4.83036 6.4316 5.93304 7.07878 6.57143 8.0607L13.0759 4.80696C12.933 4.42312 12.8571 4.00803 12.8571 3.57063C12.8571 1.59786 14.4554 0 16.4286 0C18.4018 0 20 1.59786 20 3.57063V3.57509ZM3.57143 12.1446C4.13975 12.1446 4.68479 11.9189 5.08666 11.5171C5.48852 11.1153 5.71429 10.5704 5.71429 10.0022C5.71429 9.43404 5.48852 8.88911 5.08666 8.48734C4.68479 8.08557 4.13975 7.85985 3.57143 7.85985C3.00311 7.85985 2.45806 8.08557 2.0562 8.48734C1.65434 8.88911 1.42857 9.43404 1.42857 10.0022C1.42857 10.5704 1.65434 11.1153 2.0562 11.5171C2.45806 11.9189 3.00311 12.1446 3.57143 12.1446ZM18.5714 3.57509C18.5714 3.0069 18.3457 2.46198 17.9438 2.0602C17.5419 1.65843 16.9969 1.43272 16.4286 1.43272C15.8603 1.43272 15.3152 1.65843 14.9133 2.0602C14.5115 2.46198 14.2857 3.0069 14.2857 3.57509C14.2857 4.14329 14.5115 4.68821 14.9133 5.08999C15.3152 5.49176 15.8603 5.71747 16.4286 5.71747C16.9969 5.71747 17.5419 5.49176 17.9438 5.08999C18.3457 4.68821 18.5714 4.14329 18.5714 3.57509ZM16.4286 18.5717C16.71 18.5717 16.9886 18.5163 17.2486 18.4087C17.5086 18.301 17.7448 18.1432 17.9438 17.9443C18.1428 17.7453 18.3006 17.5091 18.4083 17.2492C18.516 16.9893 18.5714 16.7107 18.5714 16.4294C18.5714 16.148 18.516 15.8694 18.4083 15.6095C18.3006 15.3496 18.1428 15.1134 17.9438 14.9145C17.7448 14.7155 17.5086 14.5577 17.2486 14.4501C16.9886 14.3424 16.71 14.287 16.4286 14.287C16.1472 14.287 15.8685 14.3424 15.6085 14.4501C15.3486 14.5577 15.1123 14.7155 14.9133 14.9145C14.7144 15.1134 14.5565 15.3496 14.4488 15.6095C14.3411 15.8694 14.2857 16.148 14.2857 16.4294C14.2857 16.7107 14.3411 16.9893 14.4488 17.2492C14.5565 17.5091 14.7144 17.7453 14.9133 17.9443C15.1123 18.1432 15.3486 18.301 15.6085 18.4087C15.8685 18.5163 16.1472 18.5717 16.4286 18.5717Z" fill="white"/>
</svg>
