<svg width="14" height="14" viewBox="0 0 14 14" fill="none" xmlns="http://www.w3.org/2000/svg">
<path d="M13.8715 7.30898C14.041 7.13945 14.041 6.86055 13.8715 6.69102L10.3715 3.19102C10.202 3.02148 9.92305 3.02148 9.75352 3.19102C9.58398 3.36055 9.58398 3.63945 9.75352 3.80898L12.507 6.5625H4.8125C4.57187 6.5625 4.375 6.75938 4.375 7C4.375 7.24062 4.57187 7.4375 4.8125 7.4375H12.507L9.75352 10.191C9.58398 10.3605 9.58398 10.6395 9.75352 10.809C9.92305 10.9785 10.202 10.9785 10.3715 10.809L13.8715 7.30898ZM4.8125 1.75C5.05312 1.75 5.25 1.55313 5.25 1.3125C5.25 1.07187 5.05312 0.875 4.8125 0.875H2.1875C0.978906 0.875 0 1.85391 0 3.0625V10.9375C0 12.1461 0.978906 13.125 2.1875 13.125H4.8125C5.05312 13.125 5.25 12.9281 5.25 12.6875C5.25 12.4469 5.05312 12.25 4.8125 12.25H2.1875C1.46289 12.25 0.875 11.6621 0.875 10.9375V3.0625C0.875 2.33789 1.46289 1.75 2.1875 1.75H4.8125Z" fill="white"/>
</svg>
