<svg width="13" height="15" viewBox="0 0 13 15" fill="none" xmlns="http://www.w3.org/2000/svg">
<g clip-path="url(#clip0_1_4299)">
<path d="M6.125 6.66797C6.46972 6.66797 6.81106 6.60007 7.12954 6.46815C7.44802 6.33623 7.7374 6.14288 7.98116 5.89912C8.22491 5.65537 8.41827 5.36599 8.55018 5.04751C8.6821 4.72903 8.75 4.38769 8.75 4.04297C8.75 3.69825 8.6821 3.3569 8.55018 3.03842C8.41827 2.71994 8.22491 2.43057 7.98116 2.18681C7.7374 1.94306 7.44802 1.7497 7.12954 1.61778C6.81106 1.48587 6.46972 1.41797 6.125 1.41797C5.78028 1.41797 5.43894 1.48587 5.12046 1.61778C4.80198 1.7497 4.5126 1.94306 4.26885 2.18681C4.02509 2.43057 3.83173 2.71994 3.69982 3.03842C3.5679 3.3569 3.5 3.69825 3.5 4.04297C3.5 4.38769 3.5679 4.72903 3.69982 5.04751C3.83173 5.36599 4.02509 5.65537 4.26885 5.89912C4.5126 6.14288 4.80198 6.33623 5.12046 6.46815C5.43894 6.60007 5.78028 6.66797 6.125 6.66797ZM9.625 4.04297C9.625 4.97123 9.25625 5.86147 8.59987 6.51784C7.9435 7.17422 7.05326 7.54297 6.125 7.54297C5.19674 7.54297 4.3065 7.17422 3.65013 6.51784C2.99375 5.86147 2.625 4.97123 2.625 4.04297C2.625 3.11471 2.99375 2.22447 3.65013 1.5681C4.3065 0.911718 5.19674 0.542969 6.125 0.542969C7.05326 0.542969 7.9435 0.911718 8.59987 1.5681C9.25625 2.22447 9.625 3.11471 9.625 4.04297ZM5.075 11.9754L3.51094 9.88906C1.98516 10.3539 0.875 11.773 0.875 13.4492V13.668H11.375V13.4492C11.375 11.773 10.2648 10.3539 8.73906 9.8918L7.175 11.9781C6.65 12.6781 5.6 12.6781 5.075 11.9781V11.9754ZM3.61211 8.95937C3.7707 8.92383 3.93203 8.99219 4.03047 9.1207L5.77773 11.4504C5.95273 11.6828 6.30273 11.6828 6.47773 11.4504L8.225 9.1207C8.32344 8.99219 8.48477 8.92383 8.64336 8.95937C10.7023 9.41055 12.25 11.248 12.25 13.4492V13.668C12.25 14.152 11.859 14.543 11.375 14.543H0.875C0.391016 14.543 0 14.152 0 13.668V13.4492C0 11.248 1.54766 9.41055 3.61211 8.96211V8.95937Z" fill="white"/>
</g>
<defs>
<clipPath id="clip0_1_4299">
<rect width="12.25" height="14" fill="white" transform="translate(0 0.542969)"/>
</clipPath>
</defs>
</svg>
